<svg id="svg11425" height="512" viewBox="0 0 16.933333 16.933334" width="512" xmlns="http://www.w3.org/2000/svg" xmlns:svg="http://www.w3.org/2000/svg"><g id="layer1" transform="translate(0 -280.067)"><path id="path4320" d="m12.170325 282.713v.52968c-.008.3607.537173.3607.529168 0v-.52968c0-.364-.529168-.34928-.529168 0zm-1.286742.48628.263548.4594c.174636.31491.64497.0427.458887-.26562l-.26355-.4594c-.167147-.29136-.640829-.0515-.458885.26562zm2.646349-.26562-.265617.4594c-.186011.30827.284231.58046.458888.26562l.263548-.4594c.175387-.30573-.28444-.56376-.456819-.26562zm-12.2070069.57257c-.43516307 0-.79375007.35859-.79375007.79375v7.40834 1.05833c.000016.14612.118465.26457.264584.26458h1.34358507c.1299819.89477.9025048 1.58802 1.831931 1.58802.929425 0 1.7001702-.69325 1.8298632-1.58802h4.5196207c.357788.005.357788-.53421 0-.52916h-4.5191047c-.129003-.89526-.9004013-1.58802-1.8303792-1.58802-.5024101 0-.958806.20286-1.2934611.52968h-1.617472v-7.14375c0-.15115.1134241-.26458.2645831-.26458h8.4666672c.151159 0 .2645817.11343.2645817.26458v6.35c-.005.35779.534213.35779.529168 0v-5.02656h3.174999c.151552 0 .230628.19029.275437.33951l.794783 2.64687c.01267.042.03558.0802.06666.1111l.980301.9803v1.74253h-1.617469c-.334174-.32682-.790017-.52968-1.292426-.52968-.502412 0-.959323.20286-1.29398.52968h-5.3216377c-.357833-.005-.357833.53426 0 .52917h4.9438847c-.115263.24087-.181901.50883-.181901.79272 0 1.01974.83389 1.85363 1.853633 1.85363.929433 0 1.700184-.69323 1.829861-1.58802h1.344104c.146119-.00001.264568-.11846.264585-.26458v-1.0573h.000529v-2.11718c-.000014-.0704-.0281-.13793-.07803-.18759l-1.011827-1.01182-.773078-2.58176c-.128998-.4308-.384246-.71675-.783415-.71675h-.529167v-.26613c-.000014-.43517-.358085-.79272-.793247-.79272-.435161 0-.794781.35756-.794781.79272v.26613h-1.057818v-.79427c0-.43516-.358588-.79375-.7937497-.79375zm11.1130159 1.05834c.151157 0 .263552.11239.263552.26355v.26613h-.529168v-.26613c0-.15116.114463-.26355.265616-.26355zm-7.407815 1.3224c-.147129-.00085-.2666971.11848-.266133.26561v.79272h-.7927179c-.14713-.00056-.266465.11901-.265616.26613v1.05627c-.0005291.14693.11869.26618.265616.26562h.7927179v.79323c-.0005291.14713.119004.26647.266133.26562h1.0562653c.146928.00055.266179-.11869.265618-.26562v-.79323h.793234c.146926.00055.266176-.11869.265615-.26562v-1.05627c.000793-.14712-.118486-.26669-.265615-.26613h-.793234v-.79272c.000529-.14692-.11869-.26617-.265618-.26561zm6.349482.26355c-.146927-.00056-.266177.11869-.265615.26561v2.11719c.000529.14612.119495.2641.265615.26355h2.597774c.176736-.00004.303763-.17001.253732-.33952l-.634587-2.11718c-.03327-.11264-.136803-.18987-.254248-.18965zm-6.0859329.26561h.5291672v.7953c.000529.14532.118237.26297.263549.26355h.7953v.52917h-.7953c-.145312.00058-.262967.11824-.263549.26355v.7953h-.5291672v-.7953c-.0005821-.14531-.118237-.26297-.2635491-.26355h-.7952999v-.52917h.7952999c.1453121-.00058.262967-.11823.2635491-.26355zm6.3494849.26355h1.501716l.476972 1.58802h-1.978688zm-.263552 2.64687c-.360692-.008-.360692.53717 0 .52917h.529166c.345039-.008.345039-.52151 0-.52917zm-7.4083329 2.11718c.7337579 0 1.3224.58813 1.3224 1.32189s-.5886421 1.32446-1.3224 1.32446c-.7337591 0-1.3244681-.5907-1.3244681-1.32446s.590709-1.32189 1.3244681-1.32189zm8.9963509 0c.733756 0 1.321883.58813 1.321883 1.32189s-.588127 1.32446-1.321883 1.32446c-.733761 0-1.324466-.5907-1.324466-1.32446s.590705-1.32189 1.324466-1.32189zm-11.907284.52917h1.2392c-.07879.16468-.133729.34232-.160713.52917h-1.078487zm2.9109331 0c-.435235 0-.794766.35748-.7947821.79272 0 .43524.3595449.7953.7947821.7953.435247 0 .7927341-.36005.7927179-.7953 0-.43525-.357482-.79272-.7927179-.79272zm8.9963509 0c-.435234 0-.795284.35749-.795301.79272 0 .43524.360058.7953.795301.7953.435247 0 .792715-.36006.792715-.7953 0-.43525-.357476-.79272-.792715-.79272zm1.669664 0h1.239719v.52917h-1.079004c-.02693-.18689-.08204-.36445-.160715-.52917zm-10.6660149.52917c.1492589 0 .263551.11429.263551.26355.000005.14925-.114281.26613-.263551.26613-.1492411 0-.265616-.11688-.265616-.26613.0000059-.14927.1163688-.26355.265616-.26355zm8.9963509 0c.149262 0 .263548.11429.263548.26355s-.114278.26613-.263548.26613c-.149253 0-.266133-.11687-.266133-.26613.000004-.14927.116887-.26355.266133-.26355z" font-variant-ligatures="normal" font-variant-position="normal" font-variant-caps="normal" font-variant-numeric="normal" font-variant-alternates="normal" font-feature-settings="normal" text-indent="0" text-align="start" text-decoration-line="none" text-decoration-style="solid" text-decoration-color="rgb(0,0,0)" text-transform="none" text-orientation="mixed" white-space="normal" shape-padding="0" isolation="auto" mix-blend-mode="normal" solid-color="rgb(0,0,0)" solid-opacity="1" vector-effect="none"/></g></svg>