<?xml version="1.0" encoding="UTF-8" standalone="no"?>
<!-- Created with Inkscape (http://www.inkscape.org/) -->

<svg
   version="1.1"
   id="svg2775"
   xml:space="preserve"
   width="682.66669"
   height="682.66669"
   viewBox="0 0 682.66669 682.66669"
   xmlns="http://www.w3.org/2000/svg"
   xmlns:svg="http://www.w3.org/2000/svg"><defs
     id="defs2779"><clipPath
       clipPathUnits="userSpaceOnUse"
       id="clipPath2789"><path
         d="M 0,512 H 512 V 0 H 0 Z"
         id="path2787" /></clipPath></defs><g
     id="g2781"
     transform="matrix(1.3333333,0,0,-1.3333333,0,682.66667)"><g
       id="g2783"><g
         id="g2785"
         clip-path="url(#clipPath2789)"><g
           id="g2791"
           transform="translate(50.1191,295.6875)"><path
             d="M 0,0 73.696,-23.017 C 84.722,-27.58 90.334,-39.91 86.791,-51.078 H 22.902 0 Z"
             style="fill:none;stroke:#000000;stroke-width:15;stroke-linecap:round;stroke-linejoin:round;stroke-miterlimit:10;stroke-dasharray:none;stroke-opacity:1"
             id="path2793" /></g><g
           id="g2795"
           transform="translate(475.3164,65.835)"><path
             d="M 0,0 V 75.994"
             style="fill:none;stroke:#000000;stroke-width:15;stroke-linecap:round;stroke-linejoin:round;stroke-miterlimit:10;stroke-dasharray:none;stroke-opacity:1"
             id="path2797" /></g><g
           id="g2799"
           transform="translate(351.5918,292.1162)"><path
             d="m 0,0 h -71.06 c -20.889,0 -37.982,-17.093 -37.982,-37.983 V -150.287 H 108.73 V 0 H 34.638"
             style="fill:none;stroke:#000000;stroke-width:15;stroke-linecap:round;stroke-linejoin:round;stroke-miterlimit:10;stroke-dasharray:none;stroke-opacity:1"
             id="path2801" /></g><g
           id="g2803"
           transform="translate(50.1191,244.6094)"><path
             d="M 0,0 H 192.431"
             style="fill:none;stroke:#000000;stroke-width:15;stroke-linecap:round;stroke-linejoin:round;stroke-miterlimit:10;stroke-dasharray:none;stroke-opacity:1"
             id="path2805" /></g><g
           id="g2807"
           transform="translate(42.8062,65.835)"><path
             d="M 0,0 V 75.994"
             style="fill:none;stroke:#000000;stroke-width:15;stroke-linecap:round;stroke-linejoin:round;stroke-miterlimit:10;stroke-dasharray:none;stroke-opacity:1"
             id="path2809" /></g><g
           id="g2811"
           transform="translate(42.8062,103.8457)"><path
             d="M 0,0 H 432.51"
             style="fill:none;stroke:#000000;stroke-width:15;stroke-linecap:round;stroke-linejoin:round;stroke-miterlimit:10;stroke-dasharray:none;stroke-opacity:1"
             id="path2813" /></g><g
           id="g2815"
           transform="translate(194.7046,493.9629)"><path
             d="m 0,0 c 43.877,23.3 98.328,6.633 121.626,-37.245 23.3,-43.879 6.633,-98.33 -37.244,-121.63 -43.877,-23.301 -98.327,-6.633 -121.627,37.245 C -60.544,-77.751 -43.849,-23.3 0,0 Z"
             style="fill:none;stroke:#000000;stroke-width:15;stroke-linecap:round;stroke-linejoin:round;stroke-miterlimit:10;stroke-dasharray:none;stroke-opacity:1"
             id="path2817" /></g><g
           id="g2819"
           transform="translate(276.5068,431.377)"><path
             d="m 0,0 h -22.76 v 22.761 c 0,5.357 -4.394,9.751 -9.751,9.751 h -14.2 c -5.357,0 -9.723,-4.394 -9.723,-9.751 V 0 h -22.789 c -5.357,0 -9.75,-4.394 -9.75,-9.751 v -14.201 c 0,-5.358 4.393,-9.751 9.75,-9.751 h 22.789 v -22.761 c 0,-5.357 4.366,-9.751 9.723,-9.751 h 14.2 c 5.357,0 9.751,4.394 9.751,9.751 v 22.761 H 0 c 5.357,0 9.751,4.393 9.751,9.751 V -9.751 C 9.751,-4.394 5.357,0 0,0 Z"
             style="fill:none;stroke:#000000;stroke-width:15;stroke-linecap:round;stroke-linejoin:round;stroke-miterlimit:10;stroke-dasharray:none;stroke-opacity:1"
             id="path2821" /></g><g
           id="g2823"
           transform="translate(475.3164,65.835)"><path
             d="m 0,0 c -16.128,0 -29.167,-13.067 -29.167,-29.168 0,-16.1 13.039,-29.167 29.167,-29.167 16.1,0 29.167,13.067 29.167,29.167 C 29.167,-13.067 16.1,0 0,0 Z"
             style="fill:none;stroke:#000000;stroke-width:15;stroke-linecap:round;stroke-linejoin:round;stroke-miterlimit:10;stroke-dasharray:none;stroke-opacity:1"
             id="path2825" /></g><g
           id="g2827"
           transform="translate(42.8062,65.835)"><path
             d="m 0,0 c 16.1,0 29.167,-13.067 29.167,-29.168 0,-16.1 -13.067,-29.167 -29.167,-29.167 -16.128,0 -29.167,13.067 -29.167,29.167 C -29.167,-13.067 -16.128,0 0,0 Z"
             style="fill:none;stroke:#000000;stroke-width:15;stroke-linecap:round;stroke-linejoin:round;stroke-miterlimit:10;stroke-dasharray:none;stroke-opacity:1"
             id="path2829" /></g><g
           id="g2831"
           transform="translate(7.5171,269.6377)"><path
             d="m 0,0 v 70.184 c 0,11.734 9.581,21.315 21.287,21.315 11.734,0 21.315,-9.581 21.315,-21.315 v -155.39 h 192.431 v -42.603 h 217.772 v 42.603 107.685 c 0,11.706 9.58,21.287 21.286,21.287 11.707,0 21.316,-9.581 21.316,-21.287 V -127.809 H 0 v 93.171"
             style="fill:none;stroke:#000000;stroke-width:15;stroke-linecap:round;stroke-linejoin:round;stroke-miterlimit:10;stroke-dasharray:none;stroke-opacity:1"
             id="path2833" /></g></g></g></g></svg>
