<svg id="Layer_1" height="512" viewBox="0 0 64 64" width="512" xmlns="http://www.w3.org/2000/svg" data-name="Layer 1"><path d="m26 21h3v3a1 1 0 0 0 1 1h4a1 1 0 0 0 1-1v-3h3a1 1 0 0 0 1-1v-4a1 1 0 0 0 -1-1h-3v-3a1 1 0 0 0 -1-1h-4a1 1 0 0 0 -1 1v3h-3a1 1 0 0 0 -1 1v4a1 1 0 0 0 1 1zm1-4h3a1 1 0 0 0 1-1v-3h2v3a1 1 0 0 0 1 1h3v2h-3a1 1 0 0 0 -1 1v3h-2v-3a1 1 0 0 0 -1-1h-3z"/><path d="m40 1h-16a1 1 0 0 0 -1 1v3h-11a1 1 0 0 0 -1 1v56a1 1 0 0 0 1 1h40a1 1 0 0 0 1-1v-56a1 1 0 0 0 -1-1h-11v-3a1 1 0 0 0 -1-1zm-15 2h14v4h-14zm24 55v-51h2v54h-38v-54h2v51a1 1 0 0 0 1 1h32a1 1 0 0 0 1-1zm-2-51v50h-30v-50h6v1a1 1 0 0 0 1 1h16a1 1 0 0 0 1-1v-1z"/><path d="m19 28h26v2h-26z"/><path d="m19 36h26v2h-26z"/><path d="m19 44h26v2h-26z"/><path d="m19 52h26v2h-26z"/></svg>