<?xml version="1.0" encoding="UTF-8" standalone="no"?>
<!-- Created with Inkscape (http://www.inkscape.org/) -->

<svg
   version="1.1"
   id="svg129"
   xml:space="preserve"
   width="682.66669"
   height="682.66669"
   viewBox="0 0 682.66669 682.66669"
   xmlns="http://www.w3.org/2000/svg"
   xmlns:svg="http://www.w3.org/2000/svg"><defs
     id="defs133"><clipPath
       clipPathUnits="userSpaceOnUse"
       id="clipPath143"><path
         d="M 0,512 H 512 V 0 H 0 Z"
         id="path141" /></clipPath></defs><g
     id="g135"
     transform="matrix(1.3333333,0,0,-1.3333333,0,682.66667)"><g
       id="g137"><g
         id="g139"
         clip-path="url(#clipPath143)"><g
           id="g145"
           transform="translate(431.0273,7.2344)"><path
             d="m 0,0 h -350.059 c -11,0 -19.916,8.917 -19.916,19.917 v 457.698 c 0,10.999 8.916,19.916 19.916,19.916 H 0 c 11,0 19.917,-8.917 19.917,-19.916 V 19.917 C 19.917,8.917 11,0 0,0 Z"
             style="fill:none;stroke:#000000;stroke-width:15;stroke-linecap:round;stroke-linejoin:round;stroke-miterlimit:10;stroke-dasharray:none;stroke-opacity:1"
             id="path147" /></g><g
           id="g149"
           transform="translate(98.6831,180.4189)"><path
             d="m 0,0 v 282.873 c 0,2.483 2.013,4.496 4.497,4.496 h 305.636 c 2.484,0 4.497,-2.013 4.497,-4.496 V -131.71 c 0,-2.484 -2.013,-4.497 -4.497,-4.497 H 4.497 c -2.484,0 -4.497,2.013 -4.497,4.497 v 96.396"
             style="fill:none;stroke:#000000;stroke-width:15;stroke-linecap:round;stroke-linejoin:round;stroke-miterlimit:10;stroke-dasharray:none;stroke-opacity:1"
             id="path151" /></g><g
           id="g153"
           transform="translate(301.895,377.4434)"><path
             d="m 0,0 h -160.912 c -4.378,0 -7.927,3.549 -7.927,7.928 v 28.598 c 0,4.378 3.549,7.928 7.927,7.928 h 230.03 c 4.378,0 7.927,-3.55 7.927,-7.928 V 7.928 C 77.045,3.549 73.496,0 69.118,0 H 34.419"
             style="fill:none;stroke:#000000;stroke-width:15;stroke-linecap:round;stroke-linejoin:round;stroke-miterlimit:10;stroke-dasharray:none;stroke-opacity:1"
             id="path155" /></g><g
           id="g157"
           transform="translate(320.479,256)"><path
             d="m 0,0 v -50.799 c 0,-3.476 4.053,-5.376 6.725,-3.153 l 12.598,10.481 c 1.52,1.264 3.726,1.264 5.246,0 l 12.598,-10.481 c 2.672,-2.223 6.725,-0.323 6.725,3.153 V 1.764"
             style="fill:none;stroke:#000000;stroke-width:15;stroke-linecap:round;stroke-linejoin:round;stroke-miterlimit:10;stroke-dasharray:none;stroke-opacity:1"
             id="path159" /></g><g
           id="g161"
           transform="translate(378.9404,286.9482)"><path
             d="m 0,0 c 0,-20.167 -16.349,-36.515 -36.516,-36.515 -20.167,0 -36.515,16.348 -36.515,36.515 0,20.167 16.348,36.516 36.515,36.516 C -16.349,36.516 0,20.167 0,0 Z"
             style="fill:none;stroke:#000000;stroke-width:15;stroke-linecap:round;stroke-linejoin:round;stroke-miterlimit:10;stroke-dasharray:none;stroke-opacity:1"
             id="path163" /></g><g
           id="g165"
           transform="translate(290.5693,93.0947)"><path
             d="m 0,0 c -10.979,-2.667 -31.095,-5.992 -40.35,2.138 -5.277,4.636 -7.363,11.908 -7.588,18.738 -5.279,-8.431 -14.848,-23.133 -26.59,-17.183 -8.9,4.511 -9.669,17.028 -4.879,24.787 -3.39,-5.488 -7.606,-10.326 -12.439,-14.596 -4.171,-3.686 -15.443,-14.511 -21.546,-10.225 -8.417,5.91 7.801,27.314 11.308,32.79 6.76,10.559 14.251,20.624 21.727,30.678 -19.523,-19.853 -49.756,-27.984 -77.157,-23.03"
             style="fill:none;stroke:#000000;stroke-width:15;stroke-linecap:round;stroke-linejoin:round;stroke-miterlimit:10;stroke-dasharray:none;stroke-opacity:1"
             id="path167" /></g><g
           id="g169"
           transform="translate(232.9771,323.4639)"><path
             d="M 0,0 H 23.021"
             style="fill:none;stroke:#000000;stroke-width:15;stroke-linecap:round;stroke-linejoin:round;stroke-miterlimit:10;stroke-dasharray:none;stroke-opacity:1"
             id="path171" /></g><g
           id="g173"
           transform="translate(133.0557,323.4639)"><path
             d="M 0,0 H 62.595"
             style="fill:none;stroke:#000000;stroke-width:15;stroke-linecap:round;stroke-linejoin:round;stroke-miterlimit:10;stroke-dasharray:none;stroke-opacity:1"
             id="path175" /></g><g
           id="g177"
           transform="translate(133.0557,288.8193)"><path
             d="M 0,0 H 122.942"
             style="fill:none;stroke:#000000;stroke-width:15;stroke-linecap:round;stroke-linejoin:round;stroke-miterlimit:10;stroke-dasharray:none;stroke-opacity:1"
             id="path179" /></g><g
           id="g181"
           transform="translate(195.6504,254.1743)"><path
             d="M 0,0 H 60.348"
             style="fill:none;stroke:#000000;stroke-width:15;stroke-linecap:round;stroke-linejoin:round;stroke-miterlimit:10;stroke-dasharray:none;stroke-opacity:1"
             id="path183" /></g><g
           id="g185"
           transform="translate(133.0557,254.1743)"><path
             d="M 0,0 H 26.173"
             style="fill:none;stroke:#000000;stroke-width:15;stroke-linecap:round;stroke-linejoin:round;stroke-miterlimit:10;stroke-dasharray:none;stroke-opacity:1"
             id="path187" /></g><g
           id="g189"
           transform="translate(133.0557,219.5298)"><path
             d="M 0,0 H 93.656"
             style="fill:none;stroke:#000000;stroke-width:15;stroke-linecap:round;stroke-linejoin:round;stroke-miterlimit:10;stroke-dasharray:none;stroke-opacity:1"
             id="path191" /></g></g></g></g></svg>
