<svg id="Слой_1" height="512" viewBox="0 0 512 512" width="512" xmlns="http://www.w3.org/2000/svg" data-name="Слой 1"><path d="m365.71 194.18a55.23 55.23 0 0 0 -103.46-26l-14.61-.28-.28 7.57-106.14-.08s-7.47 2.3-7.5 11.29 7.83 15.5 12.23 17.55l7.94-3.49 8.46 6.74 13.93-9.13 7.62 7.12h9l11.06-8.86 11.18 9.53 5.77-5 11.78 9.77 14.69 1.59v7.63l14.44 1a55.23 55.23 0 0 0 103.9-27zm-16.59.88a20.33 20.33 0 1 1 -20.33-20.33 20.33 20.33 0 0 1 20.33 20.33z" fill="#fbdd56"/><rect fill="#e6e9ee" height="79.96" rx="22.31" width="272.81" x="113.03" y="280.93"/><path d="m474.86 230.68-47.86 65.95 27.54 2.87a203.14 203.14 0 0 1 -85.49 126.09 205.59 205.59 0 0 1 -202.87 15 12.23 12.23 0 1 0 -10.54 22.07 229 229 0 0 0 227.09-16.78 226.74 226.74 0 0 0 71.4-77.3 230.83 230.83 0 0 0 24.87-66.58l29.09 3z" fill="#ff7259"/><path d="m340.38 43.57a229.06 229.06 0 0 0 -308 156.87l-28.47-4 30.55 75.56 50.15-64.2-27.85-3.91a204.63 204.63 0 0 1 274.48-137.63 12.23 12.23 0 1 0 9.14-22.69z" fill="#a78fe9"/><path d="m154 345.64a3.94 3.94 0 0 1 -3.94-3.94v-40.94a3.94 3.94 0 1 1 7.88 0v40.94a3.94 3.94 0 0 1 -3.94 3.94z"/><path d="m135.94 334.72a3.94 3.94 0 0 1 -1.84-7.42l36.21-19.09a3.94 3.94 0 1 1 3.67 7l-36.21 19.09a3.93 3.93 0 0 1 -1.83.42z"/><path d="m171.08 336.51a3.92 3.92 0 0 1 -2.18-.66l-34.08-22.68a3.94 3.94 0 1 1 4.36-6.56l34.08 22.68a3.94 3.94 0 0 1 -2.19 7.22z"/><path d="m218.49 345.64a3.94 3.94 0 0 1 -3.94-3.94v-40.94a3.94 3.94 0 1 1 7.88 0v40.94a3.94 3.94 0 0 1 -3.94 3.94z"/><path d="m200.38 334.72a3.94 3.94 0 0 1 -1.84-7.42l36.21-19.09a3.94 3.94 0 1 1 3.67 7l-36.21 19.09a3.93 3.93 0 0 1 -1.83.42z"/><path d="m235.52 336.51a3.92 3.92 0 0 1 -2.18-.66l-34.08-22.68a3.94 3.94 0 1 1 4.36-6.56l34.08 22.68a3.94 3.94 0 0 1 -2.19 7.22z"/><path d="m282.92 345.64a3.94 3.94 0 0 1 -3.92-3.94v-40.94a3.94 3.94 0 1 1 7.88 0v40.94a3.94 3.94 0 0 1 -3.96 3.94z"/><path d="m264.82 334.72a3.94 3.94 0 0 1 -1.84-7.42l36.21-19.09a3.94 3.94 0 0 1 3.67 7l-36.21 19.09a3.92 3.92 0 0 1 -1.83.42z"/><path d="m300 336.51a3.92 3.92 0 0 1 -2.18-.66l-34.12-22.68a3.94 3.94 0 1 1 4.36-6.56l34.08 22.68a3.94 3.94 0 0 1 -2.19 7.22z"/><path d="m364.2 346h-43.27a3.94 3.94 0 0 1 0-7.88h43.27a3.94 3.94 0 0 1 0 7.88z"/><path d="m150.07 450a3.92 3.92 0 0 1 -1.89-.49c-2.2-1.21-4.39-2.46-6.52-3.73a3.94 3.94 0 0 1 4-6.77c2.05 1.22 4.17 2.43 6.29 3.59a3.94 3.94 0 0 1 -1.9 7.39z"/><path d="m124.25 433.3a3.92 3.92 0 0 1 -2.36-.79c-3.79-2.85-7.53-5.86-11.13-8.95a3.94 3.94 0 1 1 5.13-6c3.47 3 7.08 5.88 10.73 8.63a3.94 3.94 0 0 1 -2.37 7.09zm-27.79-25a3.93 3.93 0 0 1 -2.88-1.25c-3.23-3.46-6.4-7.07-9.41-10.73a3.94 3.94 0 1 1 6.09-5c2.9 3.54 6 7 9.08 10.35a3.94 3.94 0 0 1 -2.87 6.63zm-23.09-29.3a3.93 3.93 0 0 1 -3.3-1.78c-2.61-4-5.12-8.06-7.46-12.17a3.94 3.94 0 0 1 6.85-3.9c2.26 4 4.68 7.92 7.19 11.74a3.94 3.94 0 0 1 -3.29 6.1z"/><path d="m55.58 346.1a3.94 3.94 0 0 1 -3.58-2.38c-1-2.29-2-4.63-2.88-6.95a3.94 3.94 0 1 1 7.33-2.89c.88 2.24 1.81 4.49 2.77 6.7a3.94 3.94 0 0 1 -3.61 5.51z"/><path d="m353.63 67a3.92 3.92 0 0 1 -1.79-.43c-2.14-1.09-4.33-2.17-6.51-3.19a3.94 3.94 0 1 1 3.35-7.13c2.26 1.06 4.53 2.18 6.75 3.31a3.94 3.94 0 0 1 -1.8 7.44z"/><path d="m431.92 135.12a3.93 3.93 0 0 1 -3.22-1.67c-2.46-3.5-5.05-7-7.71-10.29a3.94 3.94 0 0 1 6.16-4.91c2.75 3.46 5.44 7 8 10.67a3.94 3.94 0 0 1 -3.22 6.2zm-22.29-26.85a3.93 3.93 0 0 1 -2.82-1.19c-3-3.06-6.1-6.06-9.26-8.92a3.94 3.94 0 0 1 5.29-5.83c3.28 3 6.51 6.09 9.6 9.26a3.94 3.94 0 0 1 -2.82 6.69zm-26.32-22.91a3.92 3.92 0 0 1 -2.33-.77c-3.43-2.53-7-5-10.58-7.31a3.94 3.94 0 1 1 4.28-6.61c3.72 2.41 7.41 5 11 7.58a3.94 3.94 0 0 1 -2.34 7.11z"/><path d="m447.11 160.08a3.94 3.94 0 0 1 -3.5-2.12c-1.11-2.13-2.27-4.28-3.46-6.37a3.94 3.94 0 1 1 6.86-3.87c1.23 2.17 2.43 4.4 3.58 6.61a3.94 3.94 0 0 1 -3.49 5.76z"/><path d="m363.52 364.83h-228.18a26.28 26.28 0 0 1 -26.25-26.25v-35.34a26.28 26.28 0 0 1 26.25-26.24h40.66a3.94 3.94 0 0 1 0 7.88h-40.66a18.4 18.4 0 0 0 -18.34 18.36v35.33a18.4 18.4 0 0 0 18.34 18.43h228.18a18.4 18.4 0 0 0 18.38-18.38v-35.38a18.4 18.4 0 0 0 -18.38-18.38h-171.52a3.94 3.94 0 0 1 0-7.88h171.52a26.28 26.28 0 0 1 26.25 26.25v35.33a26.28 26.28 0 0 1 -26.25 26.27z"/><path d="m254.85 489a234.4 234.4 0 0 1 -100.85-22.81 16.17 16.17 0 0 1 13.91-29.19 201.64 201.64 0 0 0 199-14.69 199.25 199.25 0 0 0 82.84-119.31l-23.12-2.41a3.94 3.94 0 0 1 -2.78-6.23l47.83-65.95a3.94 3.94 0 0 1 6.78.71l33.2 74.4a3.94 3.94 0 0 1 -4 5.52l-25.57-2.67a233.54 233.54 0 0 1 -24.48 64.16 231.12 231.12 0 0 1 -38 50.17 3.94 3.94 0 0 1 -5.57-5.57 223.25 223.25 0 0 0 36.73-48.46 225.92 225.92 0 0 0 24.37-65.38 3.94 3.94 0 0 1 4.27-3.12l22.31 2.33-27.72-61.99-39.82 54.9 20.82 2.17a3.94 3.94 0 0 1 3.44 4.75 207.09 207.09 0 0 1 -87.13 128.52 209.54 209.54 0 0 1 -206.77 15.27 8.29 8.29 0 0 0 -7.15 15 225 225 0 0 0 223.17-16.52 230.5 230.5 0 0 0 21.44-16.34 3.94 3.94 0 1 1 5.14 6 238.5 238.5 0 0 1 -22.14 16.86 232.87 232.87 0 0 1 -115.11 39.42q-7.53.46-15.04.46z"/><path d="m34.46 275.92a3.94 3.94 0 0 1 -3.65-2.46l-30.52-75.54a3.94 3.94 0 0 1 4.2-5.38l25 3.51a232.56 232.56 0 0 1 30.63-68.35 3.94 3.94 0 0 1 6.58 4.3 224.77 224.77 0 0 0 -30.47 69.4 3.94 3.94 0 0 1 -4.37 2.94l-21.71-3 25.41 62.89 41.75-53.45-21.1-3a3.94 3.94 0 0 1 -3.26-4.9 208.57 208.57 0 0 1 279.76-140.27 8.29 8.29 0 1 0 6.19-15.38 225.14 225.14 0 0 0 -262.7 71.48 3.94 3.94 0 0 1 -6.2-4.81 233 233 0 0 1 271.9-74 16.17 16.17 0 1 1 -12.08 30 200.69 200.69 0 0 0 -268 130.67l23.41 3.29a3.94 3.94 0 0 1 2.56 6.32l-50.22 64.22a3.94 3.94 0 0 1 -3.11 1.52z"/><path d="m247.36 216.42a3.94 3.94 0 0 1 -3.94-3.94v-37a3.94 3.94 0 0 1 7.88 0v37a3.94 3.94 0 0 1 -3.94 3.94z"/><path d="m310.67 254.18a59.41 59.41 0 0 1 -51.27-29.26l-12.32-.92a3.94 3.94 0 0 1 -3.66-3.93v-4.07l-11.18-1.21a3.94 3.94 0 0 1 -2.09-.88l-9.2-7.63-3.24 2.83a3.94 3.94 0 0 1 -5.14 0l-8.7-7.42-8.52 6.82a3.94 3.94 0 0 1 -2.46.86h-9a3.94 3.94 0 0 1 -2.67-1.06l-5.36-5-11.34 7.43a3.94 3.94 0 0 1 -4.61-.21l-6.6-5.26-5.76 2.53a3.94 3.94 0 0 1 -3.25 0c-5.84-2.73-14.53-10.61-14.5-21.13a15.52 15.52 0 0 1 10.28-15 3.94 3.94 0 0 1 1.16-.17l102.34.08.14-3.77a3.94 3.94 0 0 1 4-3.79l12.3.23a58.58 58.58 0 0 1 26.62-23.26 59.19 59.19 0 0 1 83 53.2 59.06 59.06 0 0 1 -59 60.06zm-59.37-37.74 10.79.78a3.94 3.94 0 0 1 3.19 2.07 51.3 51.3 0 0 0 96.49-25.05 51.3 51.3 0 0 0 -96.08-24.16 4 4 0 0 1 -3.52 2l-10.74-.2-.14 3.7a3.94 3.94 0 0 1 -3.94 3.79l-105.35-.06c-1.19.55-4.28 2.46-4.29 7.36 0 6.44 5.29 11.13 8.48 13.15l6.15-2.71a3.93 3.93 0 0 1 4 .52l6.23 5 11.54-7.63a3.94 3.94 0 0 1 4.85.41l6.5 6.06h6.05l10-8a3.94 3.94 0 0 1 5 .08l8.59 7.33 3.21-2.8a3.94 3.94 0 0 1 5.1-.06l10.87 9 13.52 1.47a3.94 3.94 0 0 1 3.51 3.92zm77.49 2.88a24.26 24.26 0 1 1 24.26-24.26 24.29 24.29 0 0 1 -24.26 24.26zm0-40.65a16.39 16.39 0 1 0 16.39 16.39 16.41 16.41 0 0 0 -16.39-16.39z"/></svg>