<svg enable-background="new 0 0 57 60.113" height="512" viewBox="0 0 57 60.113" width="512" xmlns="http://www.w3.org/2000/svg"><path d="m2 9.265h5.401c.45 1.783 2.054 3.112 3.976 3.112h15.566c1.922 0 3.526-1.329 3.976-3.112h5.401v15.604h2v-16.604c0-.553-.447-1-1-1h-6.401c-.45-1.784-2.054-3.113-3.976-3.113h-3.176c-.241-2.33-2.215-4.152-4.607-4.152s-4.366 1.822-4.607 4.151h-3.176c-1.922 0-3.526 1.329-3.976 3.113h-6.401c-.553 0-1 .447-1 1v45.66c0 .553.447 1 1 1h26v-2h-25zm9.377-3.114h4.203c.286 0 .56-.123.749-.338.19-.215.278-.5.243-.785l-.016-.128c-.012-.087-.027-.178-.027-.269-.001-1.45 1.18-2.631 2.631-2.631s2.632 1.181 2.632 2.632c0 .097-.017.192-.029.285 0 .003-.014.104-.015.106-.036.285.051.572.241.788.189.216.464.34.751.34h4.203c1.165 0 2.113.948 2.113 2.113s-.948 2.112-2.113 2.112h-15.566c-1.165 0-2.113-.947-2.113-2.112s.948-2.113 2.113-2.113z"/><path d="m57 36.738c0-3.398-2.765-6.163-6.163-6.163s-6.164 2.765-6.164 6.163c0 3.057 2.24 5.595 5.164 6.075v12.651c0 1.46-1.188 2.648-2.649 2.648h-13.356c-1.46 0-2.648-1.188-2.648-2.648v-3.964c6.18-.079 11.187-5.316 11.187-11.75v-7.005c0-2.096-1.617-3.798-3.63-3.877-.135-.349-.336-.667-.604-.927-1.019-1.046-2.866-1.023-3.839-.02-.523.507-.812 1.193-.812 1.932 0 1.5 1.221 2.721 2.721 2.721.735 0 1.421-.287 1.911-.791.271-.263.475-.575.612-.916.915.073 1.64.882 1.64 1.878v7.005c0 5.38-4.184 9.757-9.326 9.757-2.486 0-4.825-1.01-6.585-2.842-1.769-1.842-2.742-4.298-2.742-6.915v-7.005c0-.975.697-1.771 1.585-1.871.335.985 1.259 1.701 2.357 1.701h.442c1.379 0 2.5-1.121 2.5-2.5v-.442c0-1.379-1.121-2.5-2.5-2.5h-.442c-1.113 0-2.047.736-2.37 1.742-1.986.109-3.572 1.796-3.572 3.871v7.005c0 3.136 1.172 6.083 3.299 8.3 1.696 1.766 3.841 2.891 6.168 3.288v4.126c0 2.563 2.085 4.648 4.648 4.648h13.355c2.563 0 4.649-2.085 4.649-4.648v-12.651c2.924-.481 5.164-3.019 5.164-6.076zm-20.295-6.369c-.13.133-.307.206-.498.206-.391 0-.721-.33-.721-.721 0-.192.072-.368.225-.517.129-.132.305-.205.496-.205s.368.073.517.225c.132.128.204.305.204.497s-.073.369-.223.515zm-11.546-.736c0-.275.225-.5.5-.5h.442c.275 0 .5.225.5.5v.442c0 .275-.225.5-.5.5h-.442c-.275 0-.5-.225-.5-.5zm25.678 11.269c-2.296 0-4.164-1.868-4.164-4.164s1.868-4.163 4.164-4.163 4.163 1.867 4.163 4.163-1.867 4.164-4.163 4.164z"/><path d="m50.837 33.587c-1.737 0-3.151 1.414-3.151 3.151s1.414 3.151 3.151 3.151 3.151-1.414 3.151-3.151-1.414-3.151-3.151-3.151zm0 4.303c-.635 0-1.151-.517-1.151-1.151s.517-1.151 1.151-1.151 1.151.517 1.151 1.151-.516 1.151-1.151 1.151z"/><path d="m11.34 16.566c0-.553-.447-1-1-1h-5.189c-.553 0-1 .447-1 1v5.188c0 .553.447 1 1 1h5.188c.553 0 1-.447 1-1v-5.188zm-2 4.189h-3.189v-3.188h3.189z"/><path d="m13.453 16.604h11.415v2h-11.415z"/><path d="m13.453 19.717h7.264v2h-7.264z"/><path d="m11.34 25.905c0-.553-.447-1-1-1h-5.189c-.553 0-1 .447-1 1v5.189c0 .553.447 1 1 1h5.188c.553 0 1-.447 1-1v-5.189zm-2 4.19h-3.189v-3.189h3.189z"/><path d="m13.453 25.943h8.302v2h-8.302z"/><path d="m13.453 29.057h5.188v2h-5.188z"/><path d="m11.34 35.245c0-.553-.447-1-1-1h-5.189c-.553 0-1 .447-1 1v5.188c0 .553.447 1 1 1h5.188c.553 0 1-.447 1-1v-5.188zm-2 4.189h-3.189v-3.188h3.189z"/><path d="m13.453 35.283h4.15v2h-4.15z"/><path d="m13.453 38.396h5.188v2h-5.188z"/><path d="m10.34 43.585h-5.189c-.553 0-1 .447-1 1v5.188c0 .553.447 1 1 1h5.188c.553 0 1-.447 1-1v-5.188c.001-.553-.446-1-.999-1zm-1 5.188h-3.189v-3.188h3.189z"/><path d="m13.453 44.623h5.188v2h-5.188z"/><path d="m13.453 47.736h7.264v2h-7.264z"/><path d="m28.961 23.634h3.229c.553 0 1-.447 1-1v-.974h1.019c.553 0 1-.447 1-1v-3.158c0-.553-.447-1-1-1h-1.019v-.974c0-.553-.447-1-1-1h-3.229c-.553 0-1 .447-1 1v.974h-1.018c-.553 0-1 .447-1 1v3.158c0 .553.447 1 1 1h1.018v.974c0 .553.447 1 1 1zm-1.018-3.974v-1.158h1.018c.553 0 1-.447 1-1v-.974h1.229v.974c0 .553.447 1 1 1h1.019v1.158h-1.019c-.553 0-1 .447-1 1v.974h-1.229v-.974c0-.553-.447-1-1-1z"/></svg>