<svg height="512pt" viewBox="0 0 512 512" width="512pt" xmlns="http://www.w3.org/2000/svg"><path d="m0 316c0 69.410156 53.039062 126.753906 121 134.183594v43.84375l124.539062-83.027344c15.371094 58.085938 68.03125 101 130.460938 101 74.640625 0 136-61.378906 136-136 0-74.4375-61.011719-135-136-135-74.4375 0-135 60.5625-135 135 0 7.941406.6875 15.726562 1.988281 23.296875l-121.988281-81.324219v41.792969c-42.613281-6.722656-91-39.910156-91-73.765625h-30zm271 60c0-13.761719 2.667969-26.914062 7.503906-38.96875l26.371094 15.226562c-2.5 7.464844-3.875 15.445313-3.875 23.742188s1.375 16.277344 3.875 23.742188l-26.492188 15.296874c-4.761718-12.085937-7.382812-25.257812-7.382812-39.039062zm105-45c24.8125 0 45 20.1875 45 45s-20.1875 45-45 45-45-20.1875-45-45 20.1875-45 45-45zm106 45c0 13.8125-2.660156 27.015625-7.488281 39.128906l-27.351563-15.492187c2.480469-7.4375 3.839844-15.378907 3.839844-23.636719s-1.359375-16.199219-3.839844-23.636719l27.230469-15.421875c4.902344 12.078125 7.609375 25.261719 7.609375 39.058594zm-188.792969 65.121094 26.695313-15.414063c10.585937 11.929688 24.894531 20.480469 41.097656 23.785157v31.421874c-27.433594-3.980468-51.472656-18.699218-67.792969-39.792968zm97.792969 39.8125v-31.441406c16.242188-3.3125 30.578125-11.894532 41.167969-23.871094l27.398437 15.519531c-16.503906 21.121094-40.824218 35.84375-68.566406 39.792969zm68.230469-169.882813-27.0625 15.328125c-10.589844-11.976562-24.925781-20.558594-41.167969-23.871094v-30.453124c27.554688 3.886718 51.734375 18.300781 68.230469 38.996093zm-98.230469-38.976562v30.433593c-16.203125 3.304688-30.511719 11.855469-41.097656 23.785157l-26.363282-15.222657c16.3125-20.671874 40.214844-35.078124 67.460938-38.996093zm-225 118.925781h15v-16.972656l47.957031 31.972656-47.957031 31.972656v-16.972656h-15c-45.132812 0-83.765625-28.078125-99.027344-67.53125 28.4375 23.367188 67.984375 37.53125 99.027344 37.53125zm0 0"/><path d="m0 0v211h301v-76.972656l90 60v-41.792969c42.613281 6.722656 91 39.910156 91 73.765625h30v-30c0-69.410156-53.039062-126.753906-121-134.183594v-43.84375l-90 60v-77.972656zm361 74.027344v16.972656h15c45.132812 0 83.765625 28.078125 99.027344 67.53125-28.4375-23.367188-67.984375-37.53125-99.027344-37.53125h-15v16.972656l-47.957031-31.972656zm-90-13.027344c-16.542969 0-30-13.457031-30-30 0-.328125.011719-.664062.019531-1h29.980469zm-210.019531-31c.007812.335938.019531.671875.019531 1 0 16.542969-13.457031 30-30 30-.328125 0-.664062-.011719-1-.019531v-30.980469zm-30.980469 121.019531c.335938-.007812.671875-.019531 1-.019531 16.542969 0 30 13.457031 30 30h-31zm61 29.980469c0-33.085938-26.914062-60-60-60-.332031 0-.667969.015625-1 .019531v-30.039062c.332031.003906.667969.019531 1 .019531 33.085938 0 60-26.914062 60-60 0-.332031-.015625-.667969-.019531-1h120.039062c-.003906.332031-.019531.667969-.019531 1 0 33.085938 26.914062 60 60 60v30c-33.085938 0-60 26.914062-60 60zm180 0h-30c0-16.542969 13.457031-30 30-30zm0 0"/><path d="m151 61c-33.644531 0-60 19.765625-60 45s26.355469 45 60 45 60-19.765625 60-45-26.355469-45-60-45zm0 60c-18.3125 0-30-8.882812-30-15s11.6875-15 30-15 30 8.882812 30 15-11.6875 15-30 15zm0 0"/></svg>