<svg id="Layer_1" enable-background="new 0 0 44.088 44.088" height="512" viewBox="0 0 44.088 44.088" width="512" xmlns="http://www.w3.org/2000/svg"><path d="m34.478 37.348h-24.87c-3.169.001-5.738 2.57-5.739 5.739h36.348c0-3.17-2.569-5.739-5.739-5.739z"/><path d="m22.044 10.566c-6.697 0-11.478 4.782-11.478 11.806v12.976h22.956v-12.976c0-7.024-4.778-11.806-11.478-11.806zm7.656 14.391c-.552 0-1-.448-1-1 0-3.588-1.762-6.881-4.1-7.659-.525-.175-.809-.741-.634-1.266s.741-.809 1.266-.634c3.168 1.057 5.468 5.077 5.468 9.559 0 .552-.448 1-1 1z"/><path d="m6.739 23.044h-5.739c-.552 0-1-.448-1-1s.448-1 1-1h5.739c.552 0 1 .448 1 1s-.448 1-1 1z"/><path d="m10.485 11.974c-.265 0-.52-.105-.707-.293l-3.826-3.827c-.384-.397-.373-1.03.025-1.414.388-.374 1.002-.374 1.389 0l3.826 3.827c.39.391.39 1.024 0 1.414-.188.188-.442.293-.707.293z"/><path d="m22.044 7.739c-.552 0-1-.448-1-1v-5.739c0-.552.448-1 1-1s1 .448 1 1v5.739c0 .552-.448 1-1 1z"/><path d="m33.819 11.757c-.552 0-1-.448-1-1 0-.265.105-.519.293-.707l3.826-3.826c.39-.391 1.024-.391 1.415-.001s.391 1.024 0 1.415l-3.827 3.826c-.187.188-.442.293-.707.293z"/><path d="m43.088 23.044h-5.739c-.552 0-1-.448-1-1s.448-1 1-1h5.739c.552 0 1 .448 1 1s-.448 1-1 1z"/></svg>