<svg fill="none" height="32" viewBox="0 0 32 32" width="32" xmlns="http://www.w3.org/2000/svg"><g fill="rgb(0,0,0)"><g clip-rule="evenodd" fill-rule="evenodd"><path d="m12 12c-.5523 0-1 .4477-1 1s.4477 1 1 1 1-.4477 1-1-.4477-1-1-1zm-3 1c0-1.6569 1.3431-3 3-3s3 1.3431 3 3-1.3431 3-3 3-3-1.3431-3-3z"/><path d="m8 20c0-1.6569 1.34315-3 3-3h2c1.6569 0 3 1.3431 3 3v1c0 .5523-.4477 1-1 1s-1-.4477-1-1v-1c0-.5523-.4477-1-1-1h-2c-.5523 0-1 .4477-1 1v1c0 .5523-.44772 1-1 1s-1-.4477-1-1z"/><path d="m7 24c-.55228 0-1-.4477-1-1v-14c0-.55228.44772-1 1-1h19c.5523 0 1 .44772 1 1v12c0 .5523.4477 1 1 1s1-.4477 1-1v-12c0-1.65685-1.3431-3-3-3h-19c-1.65685 0-3 1.34315-3 3v14c0 1.6569 1.34315 3 3 3h17c.5523 0 1-.4477 1-1s-.4477-1-1-1z"/></g><path d="m25 12c0 .5523-.4477 1-1 1h-5c-.5523 0-1-.4477-1-1s.4477-1 1-1h5c.5523 0 1 .4477 1 1z"/><path d="m25 16c0 .5523-.4477 1-1 1h-5c-.5523 0-1-.4477-1-1s.4477-1 1-1h5c.5523 0 1 .4477 1 1z"/><path d="m25 20c0 .5523-.4477 1-1 1h-5c-.5523 0-1-.4477-1-1s.4477-1 1-1h5c.5523 0 1 .4477 1 1z"/></g></svg>