<svg id="Layer_1" enable-background="new 0 0 512 512" viewBox="0 0 512 512" xmlns="http://www.w3.org/2000/svg"><path d="m511 107.09v-54.01c0-20.78-16.91-37.69-37.69-37.69h-94.95c-20.78 0-37.69 16.91-37.69 37.69v19.67h-40.08c-24.68 0-44.76 20.08-44.76 44.76v65.81c0 21.36 15.04 39.28 35.4 43.71l-24.34 32.47c-3.33 4.18 1.67 10.41 6.46 8.02 0 0 86.29-39.44 86.29-39.44h56.69c24.68 0 44.76-20.08 44.76-44.77v-21.92l34.2 15.64c2.18 1.01 4.82.41 6.35-1.5 1.53-1.89 1.57-4.58.11-6.53l-19.06-25.42c16.25-4.16 28.31-18.94 28.31-36.49zm-60.55 46.04v30.19c0 18.82-15.31 34.13-34.13 34.13h-57.85c-.76 0-1.52.16-2.21.48l-68.36 31.25 17.41-23.22c2.58-3.45-.5-8.68-4.73-8.5-18.82 0-34.13-15.31-34.13-34.13v-65.81c0-18.82 15.31-34.13 34.13-34.13h45.4 70.34c18.82 0 34.13 15.31 34.13 34.13zm22.86-18.98c-4.4-.41-7.4 5.04-4.63 8.51 0 0 12.02 16.03 12.02 16.03l-19.62-8.97v-32.21c0-24.68-20.08-44.76-44.76-44.76h-65.02v-19.67c0-14.92 12.14-27.06 27.06-27.06h94.95c14.92 0 27.06 12.14 27.06 27.06v54.01c0 14.92-12.14 27.06-27.06 27.06zm-161.67-4.36c-24.54.65-24.53 36.57 0 37.21 24.53-.64 24.53-36.57 0-37.21zm0 26.58c-10.48-.19-10.48-15.76 0-15.95 10.48.19 10.48 15.77 0 15.95zm47.85-26.58c-24.54.65-24.53 36.57 0 37.21 24.53-.64 24.53-36.57 0-37.21zm0 26.58c-10.48-.19-10.48-15.76 0-15.95 10.48.19 10.47 15.77 0 15.95zm47.84-26.58c-24.54.65-24.53 36.57 0 37.21 24.54-.64 24.53-36.57 0-37.21zm0 26.58c-10.48-.19-10.48-15.76 0-15.95 10.48.19 10.48 15.77 0 15.95zm37.22 305.69h-5.32v-104c0-14.47-11.78-26.25-26.25-26.25h-162.8c-9.57 0-17.88 5.21-22.47 12.88-14.22-15.19-33.54-25.56-54.14-29.09 20.65-11.68 33.99-34.37 33.28-58.98 7.89 12.42 28.7 6.87 28.86-8.19 1.6-.92 2.72-2.57 2.72-4.55v-38.27c.17-61.53-51.92-110.71-113.23-107.96-59.54 0-107.97 48.44-107.97 107.97v39.48c0 2.05 1.2 3.77 2.89 4.66 1.21 14.32 21.19 18.7 28.67 6.89-.7 24.57 12.65 47.23 33.3 58.93-45.85 7.32-81.85 50.1-81.07 96.5v57.47c0 11.99 9.76 21.74 21.74 21.74h194.6c2.89 3.24 7.05 5.32 11.73 5.32h205c8.71 0 15.79-7.08 15.79-15.79v-13.45c-.02-2.93-2.39-5.31-5.33-5.31zm-210-103.99c.01-8.61 7-15.63 15.62-15.63h162.8c8.61 0 15.62 7.01 15.62 15.62v103.99h-194.04zm-38.34-99.44c0 24.46-16.36 45.95-39.3 52.67l-4.21-29.4c19.31-14.14 31.4-37.31 31.62-61.27l11.88 3.39v34.61zm-57.49 19.27c-32.45 12.36-59.55-29.35-58.69-58.25v-10.72c9.05-2.79 26.88-6.88 35.07-11.4 11.84 8.71 44.65 15.51 58.66 20.08.75 23.37-11.11 45.44-30.41 57.89v-.01c-1.48.96-3.04 1.73-4.63 2.41zm-65.47-78.1c-.45.13-.78.48-1.26.4 0 0-11.96 2.39-11.96 2.39 2.03-16.75 10.14-31.92 22.96-43.04 6.24 9.76 13.5 23.16 22.48 30.63-4.24 1.99-27.37 8.12-32.22 9.62zm122.96 13.16s-15.67-4.47-15.67-4.47c-14.28-4.83-50.35-11.92-62.03-21.49-11.82-7.41-19.77-22.41-27-33.86 45.2-29.22 106.83 6.02 104.7 59.82zm28.96 34.77c-.02 6.82-10.41 6.8-10.42 0v-36.85c.01-6.72 10.39-6.88 10.42 0zm-184.25 0c-.01 6.78-10.4 6.84-10.42 0v-36.85c0-.94.22-1.81.64-2.53 2.46-4.61 9.89-2.72 9.79 2.53-.01.01-.01 36.85-.01 36.85zm6.02-47.98c-4.68-4.97-12.7-6.15-18.64-2.79 12.89-118.14 186.21-118.06 199.06 0-7.15-4.12-17.04-1.3-20.96 5.84-12.47-94.11-145.08-93.77-157.06.11-.67-1.14-1.44-2.22-2.4-3.16zm12.48 58.88v-45.06l9.97-1.99c-1.54 27.67 9.94 55.84 33.34 71.6l-4.02 28.1c-23.02-6.88-39.29-28.32-39.29-52.65zm25.2 67.27c6.95-1.48 14.28-1.64 21.04-3.72 1.54-.79 2.52-2.32 2.81-4.01l4.25-29.72c9.68 3.48 20.58 3.28 30.09-.68.99 6.87 1.97 13.75 2.96 20.62.52 3.66.21 9.29 2.4 12.42 1.32 1.89 3.72 2.23 5.85 2.48 12.7 1.4 25.53 3.52 37.34 8.64-40.21 15.08-86.77 15.33-127.09 0 6.51-2.83 13.32-4.86 20.35-6.03zm128.67 141.48v13.29h-7.56v-42.11c0-2.94-2.38-5.32-5.32-5.32s-5.32 2.38-5.32 5.32v42.11h-133.07v-42.11c0-2.94-2.38-5.32-5.32-5.32s-5.32 2.38-5.32 5.32v42.11h-28.63c-6.13 0-11.11-4.98-11.11-11.11v-57.47c-.14-29.51 15.33-57.77 40.3-73.6 47.87 20.53 103.78 20.63 151.8-.01 7.7 4.97 14.49 10.96 20.24 17.93-.04.55-.06 1.09-.06 1.67v103.98h-5.32c-2.93 0-5.31 2.38-5.31 5.32zm225.94 13.45c0 2.85-2.31 5.16-5.16 5.16h-205c-2.87.01-5.1-2.41-5.16-5.16v-8.14h5.32 204.68 5.32zm-108.98-101.17c-35.13 1.12-35.12 52.05 0 53.16 35.13-1.12 35.12-52.05 0-53.16zm0 42.53c-21.03-.55-21.03-31.35 0-31.9 21.03.55 21.02 31.35 0 31.9z"/></svg>