<svg id="Layer_1" enable-background="new 0 0 512 512" viewBox="0 0 512 512" xmlns="http://www.w3.org/2000/svg"><path d="m89.738 188.652 4.216-4.216-4.216-4.216c-3.125-3.124-3.125-8.189-.001-11.313 3.125-3.124 8.19-3.124 11.313-.001l4.217 4.217 4.217-4.217c3.125-3.123 8.19-3.123 11.313.001 3.124 3.124 3.124 8.189-.001 11.313l-4.216 4.216 4.216 4.216c3.125 3.124 3.125 8.189.001 11.313-1.562 1.562-3.609 2.344-5.657 2.344-2.047 0-4.095-.781-5.656-2.343l-4.217-4.217-4.217 4.217c-1.562 1.562-3.609 2.343-5.656 2.343-2.048 0-4.095-.781-5.657-2.344-3.124-3.123-3.124-8.189.001-11.313zm64.184-4.215-4.216 4.216c-3.124 3.125-3.124 8.189 0 11.314 1.562 1.562 3.609 2.343 5.657 2.343 2.047 0 4.095-.781 5.657-2.343l4.216-4.216 4.216 4.216c1.562 1.562 3.61 2.343 5.657 2.343 2.048 0 4.095-.781 5.657-2.343 3.124-3.125 3.124-8.189 0-11.314l-4.216-4.216 4.216-4.216c3.124-3.125 3.124-8.189 0-11.314-3.124-3.122-8.188-3.123-11.314 0l-4.216 4.216-4.216-4.216c-3.126-3.123-8.19-3.123-11.314 0-3.124 3.125-3.124 8.189 0 11.314zm306.02 288.625c0 17.059-13.879 30.938-30.938 30.938s-30.938-13.879-30.938-30.938c0-8.531 3.471-16.266 9.075-21.869l-13.462-23.318c-14.728 4.379-30.5 6.755-46.895 6.755s-32.167-2.376-46.894-6.755l-13.462 23.318c5.604 5.602 9.075 13.338 9.075 21.869 0 17.059-13.879 30.938-30.938 30.938-17.06 0-30.938-13.879-30.938-30.938s13.879-30.938 30.938-30.938c2.771 0 5.456.372 8.013 1.059l11.979-20.748c-21.351-8.831-39.884-22.056-54.079-38.339h-171.585c-22.047 0-39.983-17.937-39.983-39.983v-269.454c0-22.046 17.937-39.982 39.983-39.982h9.033v-10.681c0-8.82 7.176-15.996 15.995-15.996h15.855c8.819 0 15.995 7.176 15.995 15.996v10.681h41.058v-10.681c0-8.82 7.176-15.996 15.996-15.996h15.854c8.819 0 15.995 7.176 15.995 15.996v10.681h41.058v-10.681c0-8.82 7.176-15.996 15.996-15.996h15.854c8.82 0 15.996 7.176 15.996 15.996v10.681h41.057v-10.681c0-8.82 7.176-15.996 15.996-15.996h15.854c8.82 0 15.996 7.176 15.996 15.996v10.681h9.033c22.047 0 39.983 17.937 39.983 39.982v127.243c37.252 23.268 61.592 61.437 61.592 104.495 0 51.214-34.438 95.505-84.078 116.038l11.979 20.748c2.557-.687 5.242-1.059 8.013-1.059 17.06.001 30.939 13.88 30.939 30.938zm-180.438 0c0-8.236-6.701-14.938-14.938-14.938s-14.938 6.701-14.938 14.938 6.701 14.938 14.938 14.938 14.938-6.701 14.938-14.938zm87.62-310.61h-43.968v43.969h15.629v-20.257c0-4.418 3.582-8 8-8 6.901 0 13.689.431 20.339 1.245zm-163.904 103.937h43.969v-43.968h-43.969zm-16-43.968h-43.968v43.968h43.968zm75.968 43.968h43.968v-43.968h-43.968zm59.968 0h15.629v-18.811-25.157h-15.629zm-16-103.937h-43.968v43.969h43.968zm-59.968 0h-43.968v43.969h43.969v-43.969zm-59.968 0h-43.968v43.969h43.968zm-59.968 0h-43.968v43.969h43.968zm-43.968 103.937h43.968v-43.968h-43.968zm0 59.967h43.968v-43.968h-43.968zm59.968 0h43.968v-43.968h-43.968zm65.227-27.959h38.709v-16.009h-43.968v17.991c1.406-1.23 3.243-1.982 5.259-1.982zm54.709 0h43.968v-16.009h-43.968zm59.968 0h15.629v-16.009h-15.629zm31.629 0h120.191c-4.58-8.929-16.423-18.049-33.586-25.517-23.7-10.312-54.199-16.343-86.605-17.197zm0-104.024v45.315c34.586.871 67.348 7.364 92.989 18.521 8.708 3.789 16.24 7.971 22.538 12.458-16.553-42.338-61.673-73.469-115.527-76.294zm-4.156-170.373.002 18.593c0 .028.004.055.004.083s-.004.055-.004.083l.004 29.737 15.851-.005-.002-29.786c0-.01-.001-.02-.001-.03s.001-.02.001-.03l-.001-18.651zm-88.904 0 .003 18.581c0 .032.005.063.005.095s-.004.063-.005.095l.005 29.726 15.851-.005-.002-29.786c0-.01-.001-.02-.001-.03s.001-.02.001-.03l-.001-18.651zm-88.904 0 .003 18.581c0 .032.005.063.005.095s-.004.063-.005.095l.005 29.726 15.851-.005-.003-29.778c0-.013-.002-.025-.002-.037s.002-.025.002-.037l-.002-18.644zm-88.903 0 .003 18.581c0 .032.005.063.005.095s-.004.063-.005.095l.005 29.726 15.851-.005-.003-29.778c0-.013-.002-.025-.002-.037s.002-.025.002-.037l-.002-18.644zm-49.009 50.659v29.816h380.59v-29.816c0-13.224-10.759-23.982-23.983-23.982h-9.033v21.82c0 8.819-7.176 15.995-15.996 15.995h-15.854c-8.82 0-15.996-7.176-15.996-15.995v-21.82h-41.057v21.82c0 8.819-7.176 15.995-15.996 15.995h-15.854c-8.82 0-15.996-7.176-15.996-15.995v-21.82h-41.058v21.82c0 8.819-7.176 15.995-15.995 15.995h-15.854c-8.82 0-15.996-7.176-15.996-15.995v-21.82h-41.058v21.82c0 8.819-7.176 15.995-15.995 15.995h-15.857c-8.819 0-15.995-7.176-15.995-15.995v-21.82h-9.033c-13.225 0-23.984 10.759-23.984 23.982zm183.654 293.438c-5.088-8.09-9.206-16.71-12.22-25.74h-131.059c-4.418 0-8-3.582-8-8v-179.905c0-4.418 3.582-8 8-8h299.84c4.418 0 8 3.582 8 8v27.717c11.383 2.559 22.232 6.297 32.375 11.047v-72.741h-380.59v223.638c0 13.225 10.759 23.983 23.983 23.983h159.671zm128.222 50.534c68.728 0 125.191-46.067 129.971-104.233h-259.949c4.778 58.166 61.25 104.233 129.978 104.233zm97.157 54.431c0-8.236-6.701-14.938-14.938-14.938s-14.938 6.701-14.938 14.938 6.703 14.938 14.939 14.938 14.937-6.701 14.937-14.938z"/></svg>