<svg id="svg29881" height="512" width="512" xmlns="http://www.w3.org/2000/svg" xmlns:cc="http://creativecommons.org/ns#" xmlns:dc="http://purl.org/dc/elements/1.1/" xmlns:inkscape="http://www.inkscape.org/namespaces/inkscape" xmlns:rdf="http://www.w3.org/1999/02/22-rdf-syntax-ns#" xmlns:sodipodi="http://sodipodi.sourceforge.net/DTD/sodipodi-0.dtd" xmlns:svg="http://www.w3.org/2000/svg"><clipPath id="clipPath29920"><path id="path29922" d="m-254.28571 506.64789a260 248.57143 0 1 1 -520 0 260 248.57143 0 1 1 520 0z" transform="matrix(.685 0 0 .716 705.099 116.389)"/></clipPath><g id="layer1" transform="translate(0 -540.362)"><path id="path3026" d="m83.500113 566.36232v114.99993 101.04122 243.95853h344.999777l-243.95855-243.95853h243.95855z" fill="#e32d3c" stroke="#2b4896" stroke-width="20"/><g id="g4119" fill="#fff"><g id="g4106" transform="matrix(.929 0 0 .929 12.078 51.332)"><path id="path3030" d="m161.09375 681.29968-3.5625 14c-.004.001.004.0298 0 .0312h-.0312l-12.40625-7.375 2.0625 14.3125-14.3125-2.0625 7.375 12.40625-14.03125 3.59375 11.59375 8.65625c0 2.7383.3525 5.40089 1 7.9375a73.830378 73.830378 0 0 1 -37.75-39.90625 68.71875 68.71875 0 0 0 137.4375 0 73.830378 73.830378 0 0 1 -37.75 39.90625c.64758-2.53676 1-5.19902 1-7.9375l11.59375-8.65625-14.03125-3.59375 7.40625-12.40625-14.3125 2.0625 2.0625-14.3125-12.4375 7.375-3.59375-14.03125-8.65625 11.59375-8.65625-11.59375z"/><g id="g3032" transform="matrix(31.976 0 0 31.976 169.753 724.864)"><g id="g3036"><g id="g3038"/><g id="use3046" transform="matrix(.383 .924 -.924 .383 0 0)"><path id="use3928" d="m.70710678-.70710678.06446032-.44762502-.38888367.23085227"/><path id="use3930" d="m.92387953-.38268343.23085227-.38888367-.44762502.06446032"/></g></g><g id="use3048" transform="scale(-1 1)"><g id="g3906"/><g id="use3914" transform="matrix(.383 .924 -.924 .383 0 0)"><path id="use3944" d="m.70710678-.70710678.06446032-.44762502-.38888367.23085227"/></g></g></g></g><g id="g3050" transform="matrix(40.482 0 0 40.482 169.753 910.167)"><circle id="circle3052" r="1"/><g id="g3054"><g id="g3056"><path id="path3058" d="m.25881905.96592583-.25881905.61082347-.25881905-.61082347"/><path id="use3060" d="m-.25881905-.96592583.25881905-.61082347.25881905.61082347"/></g><g id="use3062" transform="rotate(90)"><path id="path4028" d="m.25881905.96592583-.25881905.61082347-.25881905-.61082347"/><path id="use4030" d="m-.25881905-.96592583.25881905-.61082347.25881905.61082347"/></g></g><g id="use3064" transform="matrix(.866 .5 -.5 .866 0 0)"><g id="g4002"><path id="path4004" d="m.25881905.96592583-.25881905.61082347-.25881905-.61082347"/><path id="use4006" d="m-.25881905-.96592583.25881905-.61082347.25881905.61082347"/></g><g id="use4008" transform="rotate(90)"><path id="path4046" d="m.25881905.96592583-.25881905.61082347-.25881905-.61082347"/><path id="use4048" d="m-.25881905-.96592583.25881905-.61082347.25881905.61082347"/></g></g><g id="use3066" transform="matrix(.5 .866 -.866 .5 0 0)"><g id="g4012"><path id="path4014" d="m.25881905.96592583-.25881905.61082347-.25881905-.61082347"/><path id="use4016" d="m-.25881905-.96592583.25881905-.61082347.25881905.61082347"/></g><g id="use4018" transform="rotate(90)"><path id="path4052" d="m.25881905.96592583-.25881905.61082347-.25881905-.61082347"/><path id="use4054" d="m-.25881905-.96592583.25881905-.61082347.25881905.61082347"/></g></g></g></g></g></svg>