<svg id="Capa_1" enable-background="new 0 0 512 512" height="512" viewBox="0 0 512 512" width="512" xmlns="http://www.w3.org/2000/svg"><g><path d="m157.469 308.187h82.469v-33.734h-48.734v-78.734c0-35.2-28.535-63.734-63.734-63.734h-15.934-15.934c-35.2 0-63.734 28.535-63.734 63.734v16.867h125.602v95.601z"/><path d="m254.938 338.187h-97.469v48.735h65.602v88.697h48.734v-120.565c0-9.301-7.567-16.867-16.867-16.867z"/><path d="m269.938 310.663c18.506 6.271 31.867 23.794 31.867 44.391v4.981h30v-30h30v30h30v30h-30v30h-30v-30h-30v85.583h210.195v-201.166h-242.062z"/><path d="m384.494 244.452h95.638v-48.734c0-35.2-28.535-63.734-63.734-63.734h-15.934-15.934c-30.031 0-55.195 20.776-61.942 48.734h53.939z"/><circle cx="400.465" cy="84.183" r="47.801"/><circle cx="111.535" cy="84.183" r="47.801"/><path d="m354.261 244.452-4.217-33.734h-75.989l4.216 33.734z"/><path d="m127.469 242.585h-127.469v233.033h30v-88.697h67.469v88.697h30z"/></g></svg>