<svg height="512" viewBox="0 0 64 64" width="512" xmlns="http://www.w3.org/2000/svg"><g id="Microscope"><path d="m57 52h-24.63l-4.71-4h21.34a3 3 0 0 0 0-6h-28.39l-1.5-1.27a8.965 8.965 0 0 1 -1.89-11.48l.23-.39 5.84 5.85a1.014 1.014 0 0 0 1.42 0l2.12-2.12.71.7a2.994 2.994 0 0 0 4.24 0l1.41-1.41a2.994 2.994 0 0 0 0-4.24l-.7-.71 1.87-1.88a14.777 14.777 0 1 0 -1.68-3.58l-13.63-13.63a1.014 1.014 0 0 0 -1.41 0l-2.13 2.12-2.82-2.83a3 3 0 0 0 0-4.24 3.068 3.068 0 0 0 -4.25 0l-5.65 5.65a3.006 3.006 0 0 0 0 4.25 3.075 3.075 0 0 0 4.24 0l2.83 2.83-2.12 2.12a1 1 0 0 0 0 1.41l4.18 4.18-2.05 2.31a22.981 22.981 0 0 0 -4.49 22.93l1.22 3.47a4.988 4.988 0 0 0 .4 9.96h50a5 5 0 0 0 0-10zm-10-48a13 13 0 1 1 -13 13 13.012 13.012 0 0 1 13-13zm2 40a1 1 0 0 1 0 2h-35v-2zm-17.22-13.54-1.42 1.42a1 1 0 0 1 -1.41 0l-2.12-2.12 2.83-2.83 2.12 2.12a.99.99 0 0 1 .29.71.967.967 0 0 1 -.29.7zm.71-6.36-1.42 1.41-.71-.7a1 1 0 0 0 -1.41 0l-4.24 4.24a1 1 0 0 0 0 1.41l.7.71-1.41 1.42-9.9-9.9 8.49-8.49zm-24.75-13.43a.99.99 0 0 0 -1.42 0l-.71.7a1.014 1.014 0 0 1 -1.41 0 1 1 0 0 1 0-1.41l5.66-5.66a1 1 0 0 1 1.41 0 1.008 1.008 0 0 1 0 1.42l-.71.7a1.008 1.008 0 0 0 0 1.42l3.54 3.53-2.83 2.83zm2.12 7.77 8.48-8.48 2.83 2.83-8.48 8.48zm1.51 8.52 1.96-2.21 2.66 2.65-.49.82a10.954 10.954 0 0 0 2.04 13.78h-4.54a1 1 0 0 0 -1 1v4a1 1 0 0 0 1 1h11.57l4.71 4h-20.57l-1.45-4.09a21 21 0 0 1 4.11-20.95zm45.63 33.04h-50a3 3 0 0 1 0-6h50a3 3 0 0 1 0 6z"/><path d="m56 56h2v2h-2z"/><path d="m52 56h2v2h-2z"/><path d="m53 20a3 3 0 1 0 3 3 3 3 0 0 0 -3-3zm0 4a1 1 0 1 1 1-1 1 1 0 0 1 -1 1z"/><path d="m41 14a3 3 0 1 0 -3-3 3 3 0 0 0 3 3zm0-4a1 1 0 1 1 -1 1 1 1 0 0 1 1-1z"/><circle cx="47" cy="27" r="2"/><circle cx="47" cy="7" r="2"/><circle cx="37" cy="19" r="2"/><circle cx="57" cy="15" r="2"/><path d="m40 19a5 5 0 0 0 9.916.916 5 5 0 1 0 -5.832-5.832 5.009 5.009 0 0 0 -4.084 4.916zm5-3a1 1 0 0 0 1-1 3 3 0 1 1 3 3 1 1 0 0 0 -1 1 3 3 0 1 1 -3-3z"/><path d="m48 14h2v2h-2z"/><path d="m44 18h2v2h-2z"/><path d="m53 8h2v2h-2z"/><path d="m38 23h2v2h-2z"/></g></svg>