<svg enable-background="new 0 0 512 512" height="512" viewBox="0 0 512 512" width="512" xmlns="http://www.w3.org/2000/svg"><g id="_x32_5_Prescription"><g><path d="m108.206 6.213c-27.005 0-48.979 21.974-48.979 48.981v401.612c0 27.008 21.974 48.981 48.979 48.981h295.587c27.005 0 48.979-21.974 48.979-48.981v-401.612c0-27.008-21.974-48.981-48.979-48.981zm329.428 48.981v401.612c0 18.662-15.183 33.843-33.84 33.843h-295.588c-18.657 0-33.84-15.181-33.84-33.843v-401.612c0-18.662 15.183-33.843 33.84-33.843h295.587c18.658 0 33.841 15.181 33.841 33.843z"/><path d="m390.789 79.533h-122.183c-4.179 0-7.569 3.388-7.569 7.569s3.39 7.569 7.569 7.569h122.183c4.179 0 7.569-3.388 7.569-7.569s-3.39-7.569-7.569-7.569z"/><path d="m268.606 153.42h95.848c4.179 0 7.569-3.388 7.569-7.569s-3.39-7.569-7.569-7.569h-95.848c-4.179 0-7.569 3.388-7.569 7.569s3.39 7.569 7.569 7.569z"/><path d="m268.606 212.171h110.164c4.179 0 7.569-3.388 7.569-7.569s-3.39-7.569-7.569-7.569h-110.164c-4.179 0-7.569 3.388-7.569 7.569s3.39 7.569 7.569 7.569z"/><path d="m390.789 255.781h-269.578c-4.179 0-7.569 3.388-7.569 7.569s3.39 7.569 7.569 7.569h269.578c4.179 0 7.569-3.388 7.569-7.569s-3.39-7.569-7.569-7.569z"/><path d="m121.211 329.668h202.834c4.179 0 7.569-3.388 7.569-7.569s-3.39-7.569-7.569-7.569h-202.834c-4.179 0-7.569 3.388-7.569 7.569s3.39 7.569 7.569 7.569z"/><path d="m359.403 373.277h-238.192c-4.179 0-7.569 3.388-7.569 7.569s3.39 7.569 7.569 7.569h238.192c4.179 0 7.569-3.388 7.569-7.569s-3.39-7.569-7.569-7.569z"/><path d="m307.206 432.026h-185.995c-4.179 0-7.569 3.388-7.569 7.569s3.39 7.569 7.569 7.569h185.995c4.179 0 7.569-3.388 7.569-7.569s-3.39-7.569-7.569-7.569z"/><path d="m121.211 188.849c4.179 0 7.569-3.388 7.569-7.569v-40.89l40.2 40.891-29.609 30.121c-2.932 2.981-2.893 7.774.089 10.706 2.976 2.927 7.774 2.892 10.703-.091l29.431-29.939 29.433 29.939c2.924 2.978 7.722 3.023 10.703.091s3.021-7.725.089-10.706l-29.612-30.121 29.612-30.123c2.932-2.981 2.893-7.774-.089-10.706-2.976-2.927-7.776-2.89-10.703.091l-29.433 29.941-40.803-41.504h28.186c17.686 0 32.071-14.387 32.071-32.071 0-17.686-14.385-32.073-32.071-32.073h-45.766c-4.179 0-7.569 3.388-7.569 7.569v108.875c0 4.182 3.39 7.569 7.569 7.569zm7.569-108.875h38.196c9.338 0 16.932 7.596 16.932 16.935 0 9.336-7.594 16.932-16.932 16.932h-38.196z"/></g></g></svg>