<?xml version="1.0" encoding="UTF-8"?>
<svg xmlns="http://www.w3.org/2000/svg" xmlns:xlink="http://www.w3.org/1999/xlink" version="1.1" id="Capa_1" x="0px" y="0px" viewBox="0 0 512 512" style="enable-background:new 0 0 512 512;" xml:space="preserve" width="512" height="512">
<g>
	
		<polyline style="fill:none;stroke:#000000;stroke-width:15;stroke-linecap:round;stroke-linejoin:round;stroke-miterlimit:10;" points="&#10;&#9;&#9;34.5,447.555 34.5,117.327 477.5,117.327 477.5,447.555 69.533,447.555 &#9;"/>
	<path style="fill:none;stroke:#000000;stroke-width:15;stroke-linecap:round;stroke-linejoin:round;stroke-miterlimit:10;" d="&#10;&#9;&#9;M416.264,90.327H22.819c-8.461,0-15.319,6.859-15.319,15.319v353.589c0,8.461,6.859,15.319,15.319,15.319h173.995l12.475,17.828&#10;&#9;&#9;c4.217,6.027,11.11,9.616,18.466,9.616h261.721c8.297,0,15.023-6.726,15.023-15.023v-381.33c0-8.461-6.859-15.319-15.319-15.319&#10;&#9;&#9;h-37.79"/>
	<path style="fill:none;stroke:#000000;stroke-width:15;stroke-linecap:round;stroke-linejoin:round;stroke-miterlimit:10;" d="&#10;&#9;&#9;M42.303,46.491h427.395c4.309,0,7.803-3.493,7.803-7.803V17.802c0-4.309-3.493-7.803-7.803-7.803H42.303&#10;&#9;&#9;c-4.309,0-7.803,3.493-7.803,7.803v20.886C34.5,42.998,37.993,46.491,42.303,46.491z"/>
	
		<rect x="224.398" y="46.491" style="fill:none;stroke:#000000;stroke-width:15;stroke-linecap:round;stroke-linejoin:round;stroke-miterlimit:10;" width="63.203" height="43.836"/>
	
		<line style="fill:none;stroke:#000000;stroke-width:15;stroke-linecap:round;stroke-linejoin:round;stroke-miterlimit:10;" x1="376.74" y1="474.555" x2="448.142" y2="474.555"/>
	
		<line style="fill:none;stroke:#000000;stroke-width:15;stroke-linecap:round;stroke-linejoin:round;stroke-miterlimit:10;" x1="475.589" y1="474.555" x2="475.589" y2="474.555"/>
	<path style="fill:none;stroke:#000000;stroke-width:15;stroke-linecap:round;stroke-linejoin:round;stroke-miterlimit:10;" d="&#10;&#9;&#9;M256,447.555L256,447.555c0-14.699-8.624-28.03-22.03-34.057l-49.971-22.463c-8.755-3.936-18.995-2.47-26.295,3.763l-10.608,9.058&#10;&#9;&#9;c-8.46,7.224-11.081,19.195-6.413,29.293l0,0c4.06,8.783,12.855,14.406,22.531,14.406H256z"/>
	<path style="fill:none;stroke:#000000;stroke-width:15;stroke-linecap:round;stroke-linejoin:round;stroke-miterlimit:10;" d="&#10;&#9;&#9;M256,447.555L256,447.555c0-14.699,8.624-28.03,22.03-34.057l49.971-22.463c8.755-3.936,18.995-2.47,26.295,3.763l10.608,9.058&#10;&#9;&#9;c8.46,7.224,11.081,19.195,6.413,29.293l0,0c-4.06,8.783-12.855,14.406-22.531,14.406H256z"/>
	<path style="fill:none;stroke:#000000;stroke-width:15;stroke-linecap:round;stroke-linejoin:round;stroke-miterlimit:10;" d="&#10;&#9;&#9;M256,392.036L256,392.036c-8.038,0-14.554-6.516-14.554-14.554v-207.64c0-8.038,6.516-14.554,14.554-14.554h0&#10;&#9;&#9;c8.038,0,14.554,6.516,14.554,14.554v207.64C270.554,385.52,264.038,392.036,256,392.036z"/>
	<path style="fill:none;stroke:#000000;stroke-width:15;stroke-linecap:round;stroke-linejoin:round;stroke-miterlimit:10;" d="&#10;&#9;&#9;M141.47,237.211c-1.39-0.95-2.69-2.03-3.88-3.22c-4.84-4.84-7.83-11.52-7.83-18.9c0-16.22,14.34-28.7,30.4-26.47l81.29,11.3"/>
	<path style="fill:none;stroke:#000000;stroke-width:15;stroke-linecap:round;stroke-linejoin:round;stroke-miterlimit:10;" d="&#10;&#9;&#9;M167.58,286.041h-11.09c-7.39,0-14.07-2.99-18.9-7.83c-4.84-4.83-7.83-11.51-7.83-18.89c0-16.23,14.34-28.71,30.4-26.47&#10;&#9;&#9;l81.29,11.29"/>
	<path style="fill:none;stroke:#000000;stroke-width:15;stroke-linecap:round;stroke-linejoin:round;stroke-miterlimit:10;" d="&#10;&#9;&#9;M241.446,292.602l-61.831-8.594c-12.224-1.699-23.13,7.796-23.13,20.137v0c0,11.228,9.102,20.331,20.331,20.331h30.968"/>
	<path style="fill:none;stroke:#000000;stroke-width:15;stroke-linecap:round;stroke-linejoin:round;stroke-miterlimit:10;" d="&#10;&#9;&#9;M270.554,199.921l81.29-11.3c16.06-2.23,30.4,10.25,30.4,26.47c0,7.38-2.99,14.06-7.83,18.9c-1.19,1.19-2.49,2.27-3.88,3.22"/>
	<path style="fill:none;stroke:#000000;stroke-width:15;stroke-linecap:round;stroke-linejoin:round;stroke-miterlimit:10;" d="&#10;&#9;&#9;M270.554,244.141l81.29-11.29c16.06-2.24,30.4,10.24,30.4,26.47c0,7.38-2.99,14.06-7.83,18.89c-4.83,4.84-11.51,7.83-18.9,7.83&#10;&#9;&#9;h-11.09"/>
	<path style="fill:none;stroke:#000000;stroke-width:15;stroke-linecap:round;stroke-linejoin:round;stroke-miterlimit:10;" d="&#10;&#9;&#9;M270.558,292.602l61.831-8.594c12.224-1.699,23.13,7.796,23.13,20.137v0c0,11.228-9.102,20.331-20.331,20.331H304.22"/>
	
		<line style="fill:none;stroke:#000000;stroke-width:15;stroke-linecap:round;stroke-linejoin:round;stroke-miterlimit:10;" x1="241.45" y1="358.268" x2="212.285" y2="354.647"/>
	
		<line style="fill:none;stroke:#000000;stroke-width:15;stroke-linecap:round;stroke-linejoin:round;stroke-miterlimit:10;" x1="270.558" y1="358.268" x2="299.724" y2="354.647"/>
	<path style="fill:none;stroke:#000000;stroke-width:15;stroke-linecap:round;stroke-linejoin:round;stroke-miterlimit:10;" d="&#10;&#9;&#9;M241.45,198.655c0,0,13.567,8.613,29.108,0"/>
	<path style="fill:none;stroke:#000000;stroke-width:15;stroke-linecap:round;stroke-linejoin:round;stroke-miterlimit:10;" d="&#10;&#9;&#9;M241.45,240.998c0,0,13.567,8.613,29.108,0"/>
	<path style="fill:none;stroke:#000000;stroke-width:15;stroke-linecap:round;stroke-linejoin:round;stroke-miterlimit:10;" d="&#10;&#9;&#9;M241.45,291.91c0,0,13.567,8.613,29.108,0"/>
	<path style="fill:none;stroke:#000000;stroke-width:15;stroke-linecap:round;stroke-linejoin:round;stroke-miterlimit:10;" d="&#10;&#9;&#9;M241.45,335.887c0,0,13.567,8.613,29.108,0"/>
	
		<line style="fill:none;stroke:#000000;stroke-width:15;stroke-linecap:round;stroke-linejoin:round;stroke-miterlimit:10;" x1="236.797" y1="474.555" x2="236.797" y2="474.555"/>
	
		<line style="fill:none;stroke:#000000;stroke-width:15;stroke-linecap:round;stroke-linejoin:round;stroke-miterlimit:10;" x1="265.666" y1="474.555" x2="265.666" y2="474.555"/>
	
		<line style="fill:none;stroke:#000000;stroke-width:15;stroke-linecap:round;stroke-linejoin:round;stroke-miterlimit:10;" x1="294.535" y1="474.555" x2="294.535" y2="474.555"/>
	<g>
		
			<line style="fill:none;stroke:#000000;stroke-width:15;stroke-linecap:round;stroke-linejoin:round;stroke-miterlimit:10;" x1="422.012" y1="160.724" x2="445.717" y2="160.724"/>
		
			<line style="fill:none;stroke:#000000;stroke-width:15;stroke-linecap:round;stroke-linejoin:round;stroke-miterlimit:10;" x1="433.864" y1="148.872" x2="433.864" y2="172.576"/>
	</g>
</g>















</svg>
