<svg id="Layer_1" enable-background="new 0 0 349.028 297.838" height="512" viewBox="0 0 349.028 297.838" width="512" xmlns="http://www.w3.org/2000/svg"><g><g><path d="m304.076 48.601c.169.12.339.233.507.354 3.411 2.453 6.629 4.988 9.662 7.571 22.139 18.859 33.763 40.43 28.736 53.77.783-.763 1.51-1.582 2.158-2.474 9.908-13.651.24-38.09-21.693-58.358.706-.668 1.417-1.362 2.133-2.112 8.503-8.846 17.033-23.773 18.545-45.938l-19.951-1.414c-1.324 17.837-7.544 27.659-13.08 33.562-1.275 1.34-2.523 2.454-3.688 3.385-28.18-18.504-58.384-21.903-69.375-7.239 3.325-1.536 7.403-2.333 12.132-2.333 15.151 0 35.266 7.93 53.914 21.226z"/><path d="m268.956 98.496c29.022 20.871 60.124 27.37 70.067 14.797.127-.162.267-.313.388-.481 8.495-11.813-3.449-35.282-27.021-55.222-2.27-1.92-4.645-3.806-7.123-5.647-.615-.457-1.228-.915-1.854-1.366-26.855-19.314-55.494-26.322-67.501-17.299-1.135.853-2.132 1.84-2.954 2.983-9.516 13.232 6.601 41.096 35.998 62.235zm22.398-.217c-2.621 3.645-11.311 1.879-19.406-3.943-8.1-5.823-12.537-13.498-9.916-17.143s11.309-1.879 19.406 3.943c8.098 5.823 12.537 13.498 9.916 17.143zm28.898-9.256c8.098 5.822 12.537 13.498 9.916 17.143-2.621 3.644-11.311 1.879-19.408-3.943-8.098-5.822-12.535-13.498-9.914-17.143 2.619-3.645 11.309-1.879 19.406 3.943zm-39.238-38.229c2.621-3.644 11.311-1.879 19.408 3.943 8.098 5.823 12.535 13.498 9.914 17.143-2.619 3.645-11.309 1.88-19.406-3.943-8.097-5.822-12.537-13.498-9.916-17.143zm-38.812-7.887c2.619-3.644 11.309-1.879 19.406 3.944 8.098 5.822 12.535 13.498 9.916 17.143-2.621 3.645-11.311 1.879-19.408-3.943-8.098-5.824-12.535-13.499-9.914-17.144z"/></g><g><path d="m158.495 242.114h-3.838l-1.614 14.832h5.452z"/><path d="m174.544 287.113h-24.082c1.148 4.986 5.33 8.934 10.702 9.518 6.3.685 12-3.489 13.38-9.518z"/><path d="m163.988 218.78c-1.29-1.585-2.3-3.357-3.022-5.315-1.035-.129-2.097-.232-3.155-.339l-.615 5.655h6.792z"/><path d="m166.151 184.895c1.194-.496 2.486-.785 3.834-.785 1.338 0 2.649.266 3.891.793 1.786.755 3.548 1.436 5.294 2.075 1.982.421 4.061.761 6.248 1.018 1.664.196 3.395.344 5.194.447 2.015.115 4.108.179 6.313.179 6.149-.002 12.256-.447 18.053-1.01.139-.014.276-.028.415-.041l-.355-3.258v-5.03c-.137.121-.263.239-.4.36-.032.028-.066.052-.099.079-1.808 1.542-4.1 2.392-6.476 2.392-2.889 0-5.637-1.249-7.535-3.424-1.757-2.011-2.624-4.585-2.443-7.252.179-2.667 1.389-5.102 3.399-6.856 2.493-2.175 4.729-4.325 6.704-6.419 2.889-3.061 5.202-5.997 6.807-8.685.016-.026.028-.051.044-.077v-17.609c1.287 1.112 2.411 2.344 3.211 3.607 1.072 1.715 1.652 3.367 1.668 5.546v.004c-.005 2.246-.676 5.313-3.205 9.554-.485.814-1.043 1.667-1.674 2.557-1.394 1.965-3.153 4.113-5.334 6.428-1.952 2.07-4.238 4.273-6.905 6.601-3.329 2.905-3.671 7.961-.764 11.287 1.581 1.812 3.799 2.738 6.028 2.739 1.867 0 3.742-.65 5.259-1.976.329-.288.63-.569.951-.855.258-.23.512-.459.765-.688 6.975-6.311 11.989-12.192 15.398-17.869 3.674-6.113 5.487-12.122 5.481-17.773 0-.002 0-.003 0-.005.019-5.646-1.847-10.663-4.423-14.529-3.893-5.83-9.089-9.409-13.227-11.752-4.161-2.323-7.393-3.365-7.737-3.482-.208-.066-.417-.117-.626-.166-.812-.29-1.683-.456-2.595-.456h-2.352c-4.428 4.255-10.418 6.801-16.947 6.801-1.865 0-3.74-.217-5.574-.643-4.431-1.032-8.297-3.216-11.364-6.158h-2.397c-.913 0-1.784.167-2.597.457-.209.049-.419.1-.627.166-.463.167-6.048 1.924-12.143 6.273-3.039 2.19-6.245 5.068-8.826 8.96-2.574 3.865-4.438 8.885-4.422 14.529-.004 5.65 1.806 11.663 5.481 17.778 3.409 5.677 8.426 11.56 15.404 17.871.252.228.505.457.763.686.32.286.621.567.95.855 1.517 1.324 3.392 1.975 5.258 1.975 1.96 0 3.909-.717 5.427-2.121.209-.193.41-.398.602-.618.979-1.12 1.58-2.437 1.832-3.801.497-2.688-.389-5.559-2.595-7.486-2.667-2.326-4.954-4.529-6.905-6.599-2.18-2.313-3.938-4.458-5.331-6.421-.633-.892-1.193-1.748-1.681-2.564-2.524-4.231-3.197-7.295-3.203-9.54 0-.004-.001-.01-.001-.015.019-2.248.631-3.943 1.773-5.713.778-1.208 1.879-2.372 3.111-3.434v17.614c.013.021.023.042.036.063 1.609 2.69 3.925 5.626 6.811 8.685 1.977 2.094 4.214 4.244 6.705 6.417 3.008 2.627 4.05 6.671 3.024 10.28l8.632 6.369 3.409 2.516c.283.208.486.48.623.778.183.399.237.848.139 1.278-.06.26-.17.513-.338.741l-.594.805c-.656.889-1.908 1.078-2.797.423l-1.067-.788-10.562-7.793c-1.867 1.858-4.394 2.923-7.049 2.923-2.377 0-4.669-.851-6.475-2.39-.032-.028-.067-.051-.1-.08-.137-.12-.262-.237-.397-.357v4.996c.001 0 .001.001.001.001 1.845.186 3.581.393 5.204.612z"/><path d="m216.495 256.946h6.443l-1.613-14.832h-4.83z"/><path d="m214.819 296.631c5.371-.585 9.552-4.533 10.7-9.518h-24.082c1.381 6.029 7.082 10.203 13.382 9.518z"/><ellipse cx="278.485" cy="195.538" rx="22.495" ry="22.496" transform="matrix(.99 -.139 .139 .99 -24.435 40.527)"/><path d="m90.807 217.217h-.003c20.493-5.276 37.888-6.857 51.439-6.859 6.057 0 11.337.318 15.785.766 1.585.159 3.07.334 4.439.518.757 2.559 2.071 4.995 4.201 7.138h15.401 11.842 24.875 25.214c6.873-5.325 9.461-13.047 8.505-19.18-1.355-8.693-12.885-13.497-23.055-11.529-4.156.433-8.858.999-13.842 1.489-.391.038-.776.078-1.171.115-7.535.714-15.678 1.211-23.606.784-.213-.011-.423-.03-.635-.044.218.056.431.105.648.159 7.298 1.829 13.965 2.747 19.649 3.146 1.987.14 3.864.223 5.595.254.643.012 1.27.018 1.875.018 8.305 0 13.275-.996 13.326-1.006.666-.138 1.352-.209 2.029-.209 4.707 0 8.82 3.345 9.785 7.955 1.125 5.395-2.346 10.705-7.74 11.836-.704.145-7.056 1.396-17.098 1.423-.103 0-.199.002-.303.002-6.567-.001-15.103-.555-24.838-2.44-3.216-.623-6.562-1.396-10.015-2.342-5.451-1.493-11.154-3.407-17.024-5.89-5.078-2.149-7.461-8.029-5.314-13.104.163-.388.362-.751.568-1.109.56-.971 1.265-1.829 2.089-2.545-.802-.095-1.634-.186-2.483-.273-.071-.007-.144-.014-.215-.022-5.286-.538-11.467-.912-18.488-.912-15.501-.002-35.035 1.819-57.671 7.648-6.686 1.722-10.71 8.537-8.988 15.223 1.453 5.641 6.53 9.386 12.097 9.386 1.032.002 2.081-.126 3.127-.396z"/><path d="m185.084 191.061c-2.132-.642-4.303-1.363-6.508-2.169-1.808-.661-3.631-1.365-5.479-2.147-2.235-.946-4.657-.792-6.673.208-1.654.821-3.036 2.21-3.812 4.044-.045.105-.076.212-.116.319-1.496 3.992.403 8.488 4.368 10.166 5.67 2.398 11.181 4.261 16.463 5.724 3.289.911 6.487 1.666 9.572 2.279 9.671 1.921 18.245 2.51 25.065 2.511h.083c10.173-.009 16.477-1.295 16.903-1.384 4.326-.906 7.098-5.145 6.195-9.469-.906-4.321-5.137-7.09-9.457-6.195v-.001c-.258.053-5.414 1.05-13.725 1.048-.537 0-1.097-.007-1.659-.016-4.801-.075-10.521-.496-16.885-1.564-2.676-.449-5.464-1.016-8.347-1.72-1.954-.48-3.951-1.021-5.988-1.634z"/><path d="m201.126 285.112h24.683 21.475c-.004-.14-.021-.275-.021-.416 0-8.349 6.795-15.143 15.144-15.143 8.348 0 15.141 6.794 15.141 15.143 0 .141-.018.276-.022.416h11.719c2.762 0 5-2.238 5-5v-16.166c0-2.762-2.238-5-5-5h-66.09-8.66v-18.834h6.612 100.284c2.762 0 5-2.238 5-5v-9.333c0-2.761-2.238-5-5-5h-76.77-3.608-22.009-24.874-12.277-12.835-3.138-8.901-103.383c-2.762 0-5 2.239-5 5v9.333c0 2.762 2.238 5 5 5h101.279 5.62v18.834h-7.668-67.083c-2.762 0-5 2.238-5 5v16.166c0 2.762 2.238 5 5 5h11.718c-.004-.14-.021-.276-.021-.417 0-8.35 6.793-15.142 15.143-15.142s15.143 6.792 15.143 15.142c0 .141-.017.277-.021.417h22.467 24.683z"/><path d="m125.727 284.696c0-7.26-5.885-13.144-13.143-13.144s-13.143 5.884-13.143 13.144c0 .141.017.276.021.416.021.681.089 1.35.211 2.001 1.136 6.102 6.479 10.726 12.911 10.726 6.431 0 11.775-4.624 12.911-10.726.122-.651.189-1.32.211-2.001.004-.14.021-.276.021-.416z"/><path d="m275.547 284.696c0-7.26-5.885-13.144-13.143-13.144s-13.143 5.884-13.143 13.144c0 .141.017.276.02.416.021.681.09 1.35.211 2.001 1.137 6.102 6.48 10.726 12.911 10.726s11.775-4.624 12.911-10.726c.121-.651.189-1.32.211-2.001.006-.14.022-.276.022-.416z"/><path d="m198.229 110.563c.205.667.41 1.335.616 2.002 1.06-.585 2.07-1.255 3.024-2.002 2.617-2.05 4.792-4.686 6.306-7.77-4.012 2.579-8.192 4.396-10.683 5.377.246.797.492 1.595.737 2.393z"/><path d="m179.079 106.258c.104-.336.207-.673.311-1.009.273-.856 1.197-1.326 2.076-1.113 4.287 1.042 8.764 1.042 13.053 0 .877-.213 1.803.258 2.076 1.113.104.335.206.671.31 1.007 1.475-.588 3.521-1.465 5.756-2.612 2.244-1.146 4.658-2.57 6.84-4.206.147-.483.285-.972.401-1.472.884-3.796.749-7.591-.225-11.1-3.305 1.108-15.818 5.165-21.683 5.165-5.863 0-18.361-4.051-21.678-5.162-.082.296-.162.593-.232.895-.933 4.005-.727 8.007.397 11.674 2.182 1.637 4.597 3.061 6.843 4.208 2.234 1.146 4.281 2.024 5.755 2.612z"/><path d="m177.753 110.563c.245-.797.49-1.595.736-2.393-2.491-.98-6.671-2.798-10.683-5.377 1.482 3.009 3.63 5.674 6.298 7.77.947.744 1.96 1.414 3.031 2.003.207-.667.412-1.335.618-2.003z"/><path d="m166.934 84.965c3.195 1.068 15.521 5.063 21.057 5.063 5.539 0 17.873-3.998 21.063-5.064.489-.163.771-.26.771-.26s-.028-1.229-.138-3.17c-.375-6.655-1.717-21.755-6.253-25.053-5.857-4.26-15.443-4.26-15.443-4.26s-9.584 0-15.443 4.26c-4.519 3.287-5.866 18.288-6.247 24.979-.113 1.983-.142 3.245-.142 3.245s.282.096.775.26z"/></g><g><path d="m75.066 164.589h46.082v-6h-45.125c.318 2.097-.042 4.186-.957 6z"/><path d="m27.41 99.385c2.762 5.324 7.628 9.54 13.854 11.297 5.606 1.582 11.315.894 16.146-1.516z"/><path d="m44.774 86.033c-2.223.993-4.357 1.944-6.378 2.805l28.924 10.6c.7-1.344 1.275-2.779 1.702-4.295 1.672-5.927.803-11.968-1.952-16.967-.116.019-.228.045-.349.055-5.492.461-14.233 4.362-21.947 7.802z"/><path d="m51.412 104.171 3.386-7.318-19.241-6.839c-4.038 1.614-7.473 2.691-9.966 2.691-.148 0-.274-.027-.416-.035.243 1.479.631 2.922 1.156 4.31l24.762 7.904c.025-.084.282-.632.319-.713z"/><path d="m14.017 202.794c2.134 5.937 5.122 17.343 5.134 34.826-.002 12.016-1.426 26.914-5.599 44.888-1.56 6.724 2.625 13.442 9.351 15.004.95.22 1.901.326 2.836.326 5.684 0 10.826-3.901 12.167-9.677h-.002c4.581-19.719 6.247-36.544 6.247-50.541.016-23.801-4.843-39.36-8.072-47.048.001-.323.001-.647-.003-.986-.617-7.069-.003-14.562 1.157-21.9-1.354-.787-2.647-1.666-3.857-2.646-4.529-3.629-8.099-8.338-10.906-14.388-3.611-7.892-4.701-15.248-5.03-18.93l-.016-.169-.004-.041-.004-.061c-.18-2.664.69-5.24 2.447-7.253 1.758-2.013 4.195-3.219 6.858-3.398.229-.014.456-.022.682-.022 5.235 0 9.614 4.097 9.969 9.326.006.088.017.2.035.353.041.382.108.937.223 1.645.209 1.322.602 3.376 1.304 5.685.802 2.706 1.914 5.186 3.199 7.259.565-2.245 1.111-4.402 1.604-6.421 3.327-9.81.129-21.883-8.298-24.405-8.431-2.52-21.006 1.54-26.712 15.932-7.733 19.84-9.801 32.89-8.246 55.2 1.624 11.062 7.23 15.585 13.536 17.442z"/><path d="m35.654 132.417c-.119-.752-.192-1.346-.233-1.727-.022-.19-.035-.329-.041-.406-.002-.02-.003-.035-.004-.047-.298-4.407-4.113-7.741-8.52-7.443-4.408.297-7.742 4.113-7.443 8.521l-.002-.002c.067.536.571 9.09 4.873 18.497 2.176 4.69 5.377 9.688 10.349 13.672.918.744 1.902 1.442 2.945 2.086 4.52 2.791 10.167 4.561 16.509 4.562.062 0 .123-.001.185-.001 4.445 0 9.205-.793 14.307-2.421 1.771-.565 3.203-1.694 4.173-3.121 1.166-1.714 1.659-3.859 1.248-6-.06-.312-.133-.624-.231-.934-1.344-4.209-5.846-6.532-10.055-5.188-3.79 1.209-6.907 1.664-9.441 1.662-4.496-.043-7.229-1.266-9.655-3.149-1.152-.896-2.192-2.05-3.135-3.336-1.998-2.725-3.519-6.1-4.461-9.278-.703-2.309-1.129-4.444-1.368-5.947z"/><path d="m22.029 85.586c.25 2.076.639 3.6 1.071 4.181.386.52 1.016.797 1.833.893 1.756.206 4.414-.469 7.607-1.634.938-.342 1.923-.726 2.943-1.141 9.613-3.915 22.422-10.613 30.44-11.572.21-.025.427-.058.63-.075 5.305-.446-1.198-12.864-10.982-17.861-7.637-3.898-22.437-5.101-29.424 3.963-3.906 5.067-4.722 14.628-4.313 21.079.05.769.115 1.499.195 2.167z"/><path d="m92.148 156.089h22.5c1.104 0 2-.896 2-2v-9.5c0-1.105-.896-2-2-2h-22.5c-1.104 0-2 .895-2 2v9.5c0 1.104.896 2 2 2z"/></g></g></svg>