<svg id="Layer_1" enable-background="new 0 0 267.171 225.833" height="512" viewBox="0 0 267.171 225.833" width="512" xmlns="http://www.w3.org/2000/svg"><g><path d="m183.752 168.789v48.044h53.5v-46.167h-46.25c-2.629 0-5.099-.684-7.25-1.877z"/><path d="m225.647 75.595c1.494 0 3.326.255 5.316 1.07 1.662-3.139 2.607-6.715 2.607-10.514 0-12.427-10.072-22.5-22.5-22.5-12.426 0-22.5 10.073-22.5 22.5 0 3.382.751 6.587 2.088 9.465h34.253c.236-.014.482-.021.736-.021z"/><path d="m244.821 102.561c-5.667-22.401-15.199-24.83-19.839-24.546h-38.03c-.275-.506-.57-1.025-.883-1.552-.566 1.811-1.596 3.502-3.102 4.863-5.007 4.526-9.578 8.029-13.759 10.537-3.686 7.932-5.954 19.217-6.866 34.084-.229 3.728 1.16 7.221 3.909 9.838 2.542 2.42 6.26 3.914 10.373 4.802.066.014.134.026.2.04v-30.796h2.2v44.304c0 .18.015.356.027.532-.027.33-.05.661-.05.998 0 6.627 5.373 12 12 12h52.083v39.667c0 6.627 5.373 12 12 12s12-5.373 12-12v-51.667c0-6.627-5.373-12-12-12h-21.968v-32.201c.684.389 1.427.668 2.2.846v28.355h19.767c3.505 0 6.725 1.217 9.281 3.239 1.608-1.376 2.675-3.377 2.794-5.657.229-4.413-3.162-8.175-7.574-8.404-3.13-.163-7.954-.683-11.654-1.441-.104-1.098-.212-2.243-.321-3.412-.567-6.044-1.065-11.179-1.575-15.222-.385-3.052-.778-5.484-1.213-7.205.001 0 0-.001 0-.002zm-58.897-8.228c0-3.406 2.761-6.167 6.167-6.167s6.167 2.761 6.167 6.167-2.761 6.167-6.167 6.167-6.167-2.761-6.167-6.167zm34.667 0c0 3.406-2.761 6.167-6.167 6.167s-6.167-2.761-6.167-6.167 2.761-6.167 6.167-6.167 6.167 2.762 6.167 6.167z"/><path d="m66.207 128.877c2.68-3.891 5.474-8.834 8.401-14.891 2.506-5.185 5.651-9.794 9.417-13.836-1.098-.253-2.14-.559-3.123-.918-3.577 3.991-6.59 8.471-8.995 13.448-3.653 7.558-6.831 12.843-9.575 16.49-1.437-.071-2.761-.36-3.942-.915-3.675-1.727-5.904-6.126-6.669-13.089h-3.022c.843 8.345 3.616 13.548 8.415 15.804.934.439 1.93.743 2.976.938-3.689 4.074-6.45 4.943-8.399 4.594-4.969-.891-8.303-9.836-10.287-18.387v-2.948h-22.333v91.167h-17.292v8.167h7.375v2.975c-.492-.194-1.023-.308-1.583-.308-2.393 0-4.333 1.94-4.333 4.333s1.94 4.333 4.333 4.333 4.333-1.94 4.333-4.333v-7h42.584v2.975c-.492-.194-1.023-.308-1.583-.308-2.393 0-4.333 1.94-4.333 4.333s1.94 4.333 4.333 4.333 4.333-1.94 4.333-4.333v-7h1.458v-8.167h-17.292v-77.841c2.247 5.584 5.395 10.18 9.757 10.963.445.08.893.12 1.345.12 3.538-.001 7.284-2.478 11.289-7.447 5.908-.291 13.068-3.373 20.906-8.142v-3.526c-6.904 4.367-13.249 7.464-18.494 8.416zm-58.637 94.956c-1.286 0-2.333-1.047-2.333-2.333s1.047-2.333 2.333-2.333c1.287 0 2.334 1.047 2.334 2.333s-1.047 2.333-2.334 2.333zm45.334 0c-1.286 0-2.333-1.047-2.333-2.333s1.047-2.333 2.333-2.333c1.287 0 2.334 1.047 2.334 2.333s-1.047 2.333-2.334 2.333z"/><path d="m162.859 64.83c1.815-.123 3.514.034 5.112.389.081-.072.168-.145.248-.217.929-.838 1.986-1.494 3.118-1.969-2.59-.935-5.473-1.412-8.68-1.196-.971.066-2.102.385-3.377.927.264.947.517 1.92.761 2.913 1.1-.497 2.051-.795 2.818-.847z"/><path d="m135.318 34.563c.272.022.565.057.866.097 2.258-3.507 3.573-7.679 3.573-12.16 0-12.427-10.072-22.5-22.5-22.5-12.426 0-22.5 10.073-22.5 22.5 0 4.406 1.271 8.513 3.461 11.984h35.846c.399 0 .81.025 1.254.079z"/><path d="m86.461 40.846c-7.834 6.169-12.417 19.818-14.012 41.728-.313 4.293 1.246 8.176 4.39 10.932 2.856 2.504 6.769 3.745 10.863 4.257v15.842 98c0 6.83 5.537 12.363 12.363 12.363 6.828 0 12.365-5.533 12.365-12.363v-90.271h4.635v90.271c0 6.83 5.537 12.363 12.363 12.363 6.828 0 12.365-5.533 12.365-12.363v-98-18.94-23.726c.811 3.471 1.565 7.618 2.196 12.571.58 4.56 3.174 8.011 7.116 9.471 1.2.444 2.499.666 3.897.666 6.551 0 15.254-4.873 25.953-14.546 3.276-2.962 3.53-8.018.57-11.295-2.959-3.278-8.018-3.536-11.298-.576-3.634 3.278-7.955 6.519-11.201 8.514-2.859-17.423-8-29.07-15.311-34.661-3.416-2.613-6.576-3.37-8.699-3.535-.313-.039-.629-.064-.953-.064h-38.633c-.3 0-.595.021-.887.054-2.045.149-4.983.869-8.082 3.308z"/><path d="m60.475 111.167v-50.834h-60.475v50.833h60.475zm-4.468-12.584h-23.5v-3h23.5zm-52.007-34.25h52.475v24.75h-52.475zm5.257 40.25c-2.692 0-4.875-2.183-4.875-4.875s2.183-4.875 4.875-4.875 4.875 2.183 4.875 4.875-2.182 4.875-4.875 4.875zm13.5 0c-2.692 0-4.875-2.183-4.875-4.875s2.183-4.875 4.875-4.875 4.875 2.183 4.875 4.875-2.182 4.875-4.875 4.875zm9.75-3.5h23.5v3h-23.5z"/></g></svg>